<mxfile host="65bd71144e">
    <diagram id="DWNiKnxjVn4vKXyu6T7E" name="Page-1">
        <mxGraphModel dx="958" dy="1113" grid="0" gridSize="10" guides="1" tooltips="1" connect="1" arrows="1" fold="1" page="0" pageScale="1" pageWidth="827" pageHeight="1169" math="0" shadow="0">
            <root>
                <mxCell id="0"/>
                <mxCell id="1" parent="0"/>
                <mxCell id="42" style="edgeStyle=none;html=1;entryX=0.5;entryY=0;entryDx=0;entryDy=0;fontSize=8;exitX=0.5;exitY=1;exitDx=0;exitDy=0;" edge="1" parent="1" source="27" target="33">
                    <mxGeometry relative="1" as="geometry"/>
                </mxCell>
                <mxCell id="7" value="" style="whiteSpace=wrap;html=1;fontSize=8;fillColor=none;dashed=1;strokeColor=#007FFF;" vertex="1" parent="1">
                    <mxGeometry x="140" y="60" width="670" height="240" as="geometry"/>
                </mxCell>
                <mxCell id="8" value="" style="dashed=0;outlineConnect=0;html=1;align=center;labelPosition=center;verticalLabelPosition=bottom;verticalAlign=top;shape=mxgraph.weblogos.github;fontSize=8;" vertex="1" parent="1">
                    <mxGeometry x="140" y="60" width="30" height="30" as="geometry"/>
                </mxCell>
                <mxCell id="9" value="" style="shape=image;verticalLabelPosition=bottom;labelBackgroundColor=#ffffff;verticalAlign=top;aspect=fixed;imageAspect=0;image=data:image/png,iVBORw0KGgoAAAANSUhEUgAAARgAAAEYCAYAAACHjumMAAAydklEQVR4nOydDYgdV3bnT82IpRIEWwKz8wxGLtUYRmaGdos4WGJadDWuME9kBrUYZ2WPO0hiJm2JJFgGx6omztZ9xLNd9jpIZj1Y7jhYYtuxRBzUghn0ZrdCV6c1SCYe1O51kMKa55IwzAsYpnZXJJVFUMvtvs9qtfrj3Vv31sd75wdNHM2rW7f7X+/Uueeee84W6AFMPzUAYDf7+QYA1Og/s5+1SADgKvvvGwDwzwDQjFztao7TRpCeRyt6AjwYjrcTAB7TLXtQt2z634+wH13ibT4HgE8BIEpa4adJK/wEAD6Og0Yk8R4I0heU3sBQo2I45AQA2Bt4JHmwAACnIlc7W+AcEKRSlM7A6NbwVt2yn9Qt26Y/APAtACjTUi6my6qkFQZJK/xZ0go/Slpzd4qeFIKUkVIZGNNPDwPAJIuhVAXq2bwQuVpY9EQQpGwUamB0a3iLbtlDhkMOAcDTkmMpeXM1Dsg5AJiLg8ZC0ZNBkDJQmIFhOz/vA0C9qDko5EzkakeKngSCFM1Xirip4Xi7AeCzHjUulMOmn84ajldkUBpBCic3D4Yth75vOKTeA8uhbvkCAN5pT9k/SVpznxc9GQTJm9wMjOmn7zPD0o+0AWBf5GoYm0H6CuVLpNr47PdNP/2sj40LsF2xa2zZ9O2iJ4MgeaHUgzH99CQAHFd5jw1YeRxgNTsL3Aqn83omcrWZgu6PILmhxMAYjmcaDnlLcRA3BoBP6E8ckPaKM0VRt2n9huMZzNDQn68bDnmEGZ9B1VnDSSt8M2mFfxIHjUTlfRCkSKQbGJYs967scVewAACNPDwA00+fZx6YKmMTxQHZEweNtqLxEaRQpBoYw/G+YzikKXPMFVDDMhG5mqrx18X000MAQBQZmtORqx1TMC6CFI4UA7NiC/qUxNgGXTo0k1b406QV/m0cNGJJ4wpjON6w4ZBRVhbicYlnpGbigDQwAxjpNaQYGLaUOCVjLAZdOhwo8xfO9NM6y0Q2ZI0ZB2RXmX9nBOHlq1kupp7LQyeiPwaAVwDg32WcC/VYgjggL7anRo4lrblSxyXioPEpALxBjeGWbeZ2GZ4bOz3+i7L/7gjSLZk8GMPxDhrO0gG/rNC39kjkaoUvg0Qx/XQSAFwZY6Eng/QKwh4MC+ieBoCtGe7/OQD85/aU/cdf/M2RyhoXWPZo/g4A5nTLTthWt7BHxzyZv01ac7flzhJB8kXIg5G0FR2zLdobGccpHZJ20+jf51HcwkaqDPdRAXZCOKtxoV+aHb1oXGDZm/k5ABxgcSVRDMMhByVOC0FyR8DALGXoZmGmPWXbVY63dEPkajNJK6yzDGNRXjYcz5Y4LQTJFa4lUsazRX17Bsf002vs+IEoI1iSE6kiXXswtfHZ72cxLkkrHOtH40JpT9nfo55bhiEuGY73mMQpIUgudO3BsJILIqny1HPZg7VQMgfHZyJXOyB5SgiilE09GN0a3mL66QVR48I8l743LrAclzmTtELRXJnvmn76nOQpIYhSujAwNl0ajQqO/0x7auRvBa/tSdpTI68CwBmBS7cAwGnW3RJBKsGmSyTTT6lLf1hgbOkuPTv/89yKei0xywKeiwNypkrtXTMsOd3I1V5VMCUEkc6GHgyr/i9S6rLdnrKlpM0bjvckXaKZfvorALjEvKnOF9NgLWU9wyH/y/TT2dr47CEZ91VN0gp/JJgnc5QVykKQ0rOuB8P6Fn0mcFqYehU7ZOS5mH5KqPEQuHSBncYutUeTIeiLfZeQSrCmB6Nbw1sESxF8HgdkjwzjUhufPSloXCiDhkPmTT89UeaYReRqZwBgWuDSw1g8HKkC6xgYe0iwnu6bMtL/TT89qVt21mLhDwGAbzjkepl3X+KA/JnIdYZDfiR/NggilzUNDOsVzctCe8p+O+uEDMf7joJOBG+afnrJcLxhyeNmhi3jRgXiMXWMxSBlZ80YjOmn/8rZeZF+OR6UFHe5kGFbvBsacUD8slXzF4zHYCwGKTX3eTDsQedt6xpKPLyo+nCfZzhkUvE9uGHxGN6g9CgLxiNIKbnHwOjW8FYA4P7yxcFS4anMmH76tMwatxtw3PTT66afero1/FAO9+uKpBW+w3kJ/VtlPd2OIMpYZWDsJwVqy0Zx0LgoaT55BmN3AgCpjYfzpp8qbbLWLUkr/InAZU+zGj0IUjpWGxje5UkSB0Rmtu5uiWN1C/1yflYbn32r6C8qa81yVODSJxVMB0Eyc0+QV6BuidTjAKafprLGysDTkaudL3ICAscIzkWu9ozCKSGIEF96MCwh7Vs8Fyet8KdKZtUdYdIKxzJWjFuLadNP3zcc75BuDfMGu6WQtMIPOC8ZUjQVBMnECgNDTvB2KkxaYaEnpdtTI+9FrvYoAIywIwoy2LIc1yBnauPhBUljcpG0wp9xXvKQ6acqt/YRRIiVMRje+MtCGdq5wvIWbyh44nsz6nTZaDierHa43SJSP6d0SYQIsmRg2PKIN8A5oWZKYkSudjEOyINJKzyVsZr/agYNh/yD6acndGv4AYnjrgsz3Lw1Yw4XtaRDkPXoeDC89V4XIlfL2vdHOnHQaLenRl4AgEclx2aWzjXlvKXd4Py8oVt2aQ92Iv3JkoHRLZu34j3vw58rkatF7Sl7LwAQALgqcWj6Bb7OzjUpPc1MfwcA+ITzsm8qmg6CCNExMDxvvrgK3QGS1twXkas1IlfbQ70PiUPrywcNyWXTT4nheCqXJR9xfv4RRfNAECE6SySeB5P3rVo4katNxAEZAQDZ2+qe4ZBZw/EOsho6UokDwhXsNRzClWaAIKrpCwMDy/GZMHK17wHAEclB4N2GQ87VxsP/JnHMDh9zfr4056oQhPIVdhq3azc/Dkilm7GzU8sqtrSfZrWDZR7W5P1b572djiAb8hWB8z+Vb1gfudr5OCA74oAcFyiRsBGjAHC9Nj4rJQCctELeuaGBQUqFiIH5Z0VzyZU4aERx0HgjDsgeAJDZ97mmW/abMgZKWnMJ59x000+z9MBGEKlQA/MNzmtKXamflzhotCNXG5F8rmnQ9NO3JAV+eeeEXgxSGr7C+0CWvRWIKCvONZ2SNORR3bIflzDOP3F+voiSFwiyJl/hPCJQqjq2KmhP2X8SB6QOAKcB4HaWsXTL/l0JU8K+3khl4TUwMrNiS0nSmrsTB42fR652LA7I72Q5pc3av+TNwwXcE0HWZNPm9/1MHDSoQd2VIe4k49wSrweD5TOR0oAGZhPYuabfZueaPue8PHPAVWK3BgTJHTQwXdA518SWTDxg+QSkr5F+fqYX0a3hrbplf99wyIucl95RNCUEqQRoYDaBpf5fEGwIx7ukWuv+GFNBKssWtvXcrSvfNwWNDMczdMv+QwB4MUMzOBmJe7wGpud3+pDqsIU9kN2+nfsiS9T00+MA4GXtMhkHRMYRBN45/JuEeyKIFLiDvPTNrmYq5cD0U2pYTkpqYSsjSQ7PFiGV5St41mWZ2vjsftNPr7DtaBk0k1Y4J2Ec3sQ5mQc3ESQTWwROR9d6oWRDB+qRGQ4RDeKuRztytX2SxuL1YPBoAVIaqIFpsnhDt3y9F96SrA/1d9jWs8xatknSCkX6S9+Hbg1v5TQwtzExDykTWyJXu2r63beENhzySByUuqnApph+ehAAzikYmnoPR9pTI1K8CN2yeQ3fFzLuiyCy6AR5efI1KrtVbTjeE6af0uXQtOSh20krfDEOyJ7I1WQuUXhr9fTM0hXpDTqJdp9yFIyu5K6G6aeEcynYLU2J8ZZ7MBzC+7fuyVo9SHXpGBieB7NymaWmn54EgOMKhg7jgDyjYNwOXH/rqhdkR3qPpSVS0go/5bnI9NPnlc1IEro1/JDpp57pp9cVGJerSSscjVxthPWRVgVvdTrcQUJKxZIHk7TCT3SLa5eWfmHfUDarjLDC1xcUeFvUQ9gnOc6yJux34J0/bx8lBFFKJ8j7S87rTNNPDymYTyYMx9tp+um7AHBNsnH5AgBIe8r+7TyMC2OS8/NRr9ZLRqrLkgcTB43PDWepTSlPUJEAwFl1U+PD9NPnWB1d2URxQEby/PKyHJ0652Wl9SiR/mXlWSTeavqm4XjDkufDhW4NG4bjPWf66SUAkNKLaAVR0gr/KA7Io3l7BgLFwpM4ICryehAkE9rK/8f0019zHvI7FbnaC7ImY/pp9xl/ywHNREGbDjrmMdZithCYweTxYK5GrrZH4ZQQRIjVBaducH5hi+zBoyof53DkaucVjd0tuHuE9AT3lGtIWmHAef3jpp/yxgo2orBzNEkrPB0HZEfRxoUFqblKRUiqO4Mg0lltYH7GeT31gN43HE9WcesivigRAOxoT40cK3oXxnA86pUdFrj05wqmgyCZWW1gPhJwtw3dsp+VNJ+3JY3TDVdXbD2XYntXt2yRrX9fcbIfggijrf4H009tAJjlHGchcrVdMiZk+ulnORxH8CNXm1B8Dy5YcfFfcbY6iSJX26FwWgiSiftKZkauFgoUjh40/ZQ3MWxNklaocrt1hp14LpVxMRyvxjKPeYzLHQA4onBaCJKZr67z71t1y+YN3g4BwFzSmsu03NiyzfxH3bJ5+w9tBl1CPBO5WiNpzWVuJSKb2ng4L7Bz9Pf091E0JQSRwnpFv4VqyRoOOZhtOktZxW0Fb+bDkavNSB5TCobj2YJb7rhzhJSeNQ1MHDQWAEAk0WzMcLzvZJ1U5GpnklboZxzmRhyQw3FAHoxc7WLWOanAcDzdcIhIjZokDsh7CqaEIFK5L8i7EtNPZwWLYR+Q4TGYfjoKAO8L9HieiQPyTBw0kqxzUAnLeRHZlm5Eriar+wGCKGO9GEyHOd2yxwDgNznHHdUt+/LtX569mWFu1JO6QY2Fbtn/jxmZBzZY1n0BAP89Dsjx9tTIj5PWXKn7QtfGZ3+4ZZv5nwQu/ShyNVlpAQiilA09GFh+y04CgCsw9o3I1R4Vm9baGI5nGg6hb/zHWLYr9VA+BICFOCDNsnssHVi/6esCnhksL/sapTnFjiAbsamB0a3hh2rj4T8INlxbaE/Z3yvjzk1R1MZnv61b9geCf8+wPWXvS1pzlTCkCLKpgYG71dWuCd5jJnK1A4LX9hwZEgnbkas9qGBKCKKMrnpTsypuotuio6afigQyew4W1BXNUi7lNjuCbMRmQd6VfKpb9g/WKPHQDaO6ZSe3f3n2FwLXVh66LHrg9878fYb2tFF7yj5y59c3/4/kqSGIUrpaInVg28YXMtzvTORqfZXezgK6VwRjLsCykHdgS1ikinS1ROoQudpM0gqzlKY8bPrpZ7Xx2SczjFEZauOzP2S7RaLG5dM4ILvQuCBVhcvAwPJhxD/J2EHQ1C37p70clzEcTzf99F3dst8R2YruEAfkxaJr1CBIFnhiMEuwBLbzumVvBYDHBe+7BQBGDYc8AgDXktZcz7yhDcezDYf8Jf39MgxzGwBeak+NYL4LUmm4YjCrYY3ks3yROoyW9bxQtxiOVzMccklSreDS1atBEBG4l0griQMiq1zAuSovmUw/NQyHvC/JuMRxQLDHEdITcC+RVpK05toAcFG3bJudExKls2Q6rFu2vmWb+Y9VyFY1HG/QcMiJLdvMcwDwiIQhL8cBGWYlKxCk8mRaInVgXzTRTN/1OBq5Wp41ernIcBJ6PWLW5A2NC9IzSDEwcNfI0GXCTlljsu6KH7BuBwtFFrc2HM/ULft3dcv+Lqs+x9VaZANuA8CbdFmExgXpNaQZGLgb6Lwu8cu3mjOsFkpuW7fsHNakQK/objkeuRrGXJCeRKqBgbtG5iAAvJwxLrMRnwDAR3Gw1LD/YwBoJ60wyhK30a3hrbplPwIA3zAcMsjODO1W2OHgU5bnUundMwTZCOkGpgPLB+Ftf5KVkLW//acV/Z0WVmbCstR9k3lZ1JA8zP6vqla0axHHAdmFSXRIr6PMwMDdHkuXsmSz9iDUqJQi/Z/pY68o4LV7Ha2osW6z4l4Ra7Z/o4Ap9x1V10ipgYFlT+YxwyEEAL4reBK7V6Diz7Sn7B/nXYCL9V36tuGQx5mntlPC0i9mS9VP4oBcpQ82K3GKCNCrGik3MB1MP30OAE7ndb+SEUauNpL3Tdly8KSkbOtuoA80waB19/S6RrkZGFi20jsNh+wHgKM5tIctAx/FAXkzaYXn80ocNBxvULfsZ3XLfqrAvzF9iD+IA/JB0grnqpA0mSf9pFGuBqaD4XiG4ZCTkhPVygQV69W8W4soSP6TAXXN95Uh5lQG+k2jQgxMB8Px6JrzRyzHRLRmSlm4AwCX6XIoDsh7cdD4NI+bUmOtW/bzumUfV5h/lBVqcK8mrfD19tTIz4qeTN70s0aFGpgOKzya0RILsBERAByJXC3Xdq6mn9IH1qvY36wSTfFk0e8alcLAdDD9lIrwFgA8XfRcOCiktILpp88DwKm87yuJviidihqVzMB0MBzPBIAnDYc4ADAEAA8VPSdGwvINFuKAUG/l53mfj9Kt4a/XxsNXAOCpim/7X40DcjwOGh8WPRHZoEZ3KaWBWQ0rNj7MgmNFuJp0CfRGHJBzRR5IZB7etR7agaMGew9ri9MToEb3UgkD00G3hnXdsncCwDeZdyMzGn+b9be+QQ1KHJA281Y+LkNKf218dr9u2ad7IBi+GvoAN9tT9jFWX6iyoEb3UykDsxKWQs171ulqJ1oOAP/G/i1cfV6pbLAT3VdyOHIRrVHQvSa5BMd6VLoDKGq0Nn1lYOKA1OOg8XN1s5KLbg1vrY2Hf84SE2U9uJ04UsTSx5dOo2+WQs5S2elD/DXdsgfpD4uPbZU0L2BHKSrlyaBGG9NvBsaNg8ar6mYlF9NPTwCAL2k4+tCeiwPSkLXkY+kFxwHgeYmxsUp5MqjRxvSVgQGA05GrHVM0JamwYGGWpm0rocu/ZyJXa0oY6z7YEZC3MrTGXUllAr+o0eYaZeoqUEGcoifQDbo1nLXdbIerSSs8HAfkQVUPLix5ho0bkauNxAHZkbRCnz2AotBlxhXD8Z6QOEXpoEbdadRvHgxlJO+MW14knFdps7MlhXgB7M1+idUuEeVq5Gp7JE5LKqjREptq1G8eDOWkbg2XtgCW6aeHAGBM8PI7AHCmPWUXusSIXC1uT9nfAwDCtv9F2E2/xIbjlU4r1OhLNtWoHw3MoG7Z3yl6EmtB18mssLlo9ufLkasdSVpzheftJK25LyJXa8QBEf0iUg6zThWlATW6jw016kcDA4ZDynZcfgnDIX8qeOkXAHC8PWX/heQpZSYOGhfjgFA3ekZwiNHa+Ox+ydMSBjVak3U16scYTIddZdqpYJXNPhO5Ng7I4TholL5RfoZe5oVUBFwNarQha2rUlx4M42TRE1jFu4LXUSN5XvJclBAHRDQHaTcLShYNarQ+a2rUzwbGptZat4ZlZjkKYfqpJ5CfcAcAfOraVqW2Shw0rsYBGRUIKurUWy0yOI8abcqaGvWzgYHltWP4wyInwEpTiJTW/GnkahNVeXA7sEZzrwtcOqhb9rCCKW0KatQ192nU7waG4hqOlyUXIBO6ZYsEMOM4IC8rmE4utKfsn7ADp1wYDnlKzYw2BjXqntUaoYEBqBkOuWI4Xp6dHb9Et2yRgNqROGj8o4Lp5ELSmvsCAPYJZJMWZWBQo+65R6N+3kVazQ1WhzS3nSV2PuQa5yncZuRq+xROq2tW1Od5mP3T/05a4UdJa66r9XttfHZSt2yX87bH8+y7hBpl06jK5fxk03mQduVlZAyHnOA94h8HpBTN69iOwewaPb0jADjQTQpA0grfFnh4CQDkaGBQoywa4RJpFYZDRLciRRBxvecUzIMLVnfk2hoPLrBSkbPdLDlZSQLec2EGy6bNC9Qog0ZoYO5n0PTTX5l+6unW8AOqbsJOovLmdhzPu8j4auiDazjkbzapOWsYDnmrm3NEcUCOsVIFPORy0ho1WiaLRmhg1oZaf1IbD+cVJnjxBpXbRfd8Nv100HDIdVYlbTN2Gw7ZtP0Mq9LG9XsZDslr1w81yqgRGpiNoW7er2rjs2/J3mUyHMI7XiDz/rzUxme/z+qf8Bhcr5sPxQE5xZnY9S2OzwqDGt1FVCM0MJuj65Z91HDINdNPL0j0aLjiCHFALku6Lzf0rahb9rRAzdmuWnewJQXP75eLgUGN7iKqERoYPkYB4Nemn16vjc/+V8PxDmYIOPJ+SQppULbirSiSpt918e6kFfLs3Bmmn+YR6EWNViCiEW5Ti7FTt2z680ew7EoDO+r+MTvY1k1AjCuAnGd+TgfWikPkrdjhXLcfpA+vbnEd9amzHlYqQY1WIKJRPxmYBgDsFwjcdcuo4JZmN+T+4LJtztmMrTh4AoP/zDn2SdNPy3QiHjW6H6OfDAy0p+yna+PhOYVGRhVd5yEYjrdbt+z9rCeOzrypG3FAprtNXV+xzSkcb0pa4en21AhP1TbV3ohqUKP7eaKfjgo0IlcjkK2oTlEciFxt02pjpp8+DwCn1vmfu2o1wVzu2Yw9dBZEShSYfppmuGfRoEZr3KMvg7ztKfv3WTpz4XVRu2TTmI7pp3UAeGWDjyy1mmABwTUR3OZczQcZ6p9U2YtBje5nsC8NTNKaux25GvVodmSoQ5obm7VZYdmYl7poEarrlj3N3oD3kGGbcyX0rfj7GeqfVKZl7GpQo7XpSwOzkvaU/UwcLBUB/6TouWTg2xyfXXpLmn56slPNL+M2J7AErONVqtxWAH2pUV8Fedciac0lSWvuLACcNxwySUUoek4CPMT5efqQHq+NL710z2bc5gTWiqPQFPkK0Jca9b0H04Fa9cjVXsjYrU8JCs9DHZWwzUld7rclzqmSoEZrgwZmFZGrnY0Dso0VPn5H4BSpCjbbVv9UcFy9wGDhWnSVtl5SUKM1QAOzBnHQiOOgcTFytT+IXG0b82qKNDSbifrLAuaXNVi4FlU2MKjR/YRoYLqAejXU0MQBGYwDQl1WHwB+yra57+QwhQ3rn9AHKA7Ivhx3YWS/FSHnIlIqQI3uJ+77IC8PcdD4GAA+joPGl/9mOJ7Oal8MMlf2sS5dWp5DHfUu5naVrtcNh6jedlfxVgRWg4eHKIc8JtToXng1+hgNTEaW30yNkLesoOmn/7eLnIgvP244Xi0OGhu+/Vg/m1HDWaoJy/swbMZtAHg5DsjbirY5H+P8/JHNck+yghrdB69GIRqY4vics94IdcEvbvYh9gCDgrek0m1O3ip1qo0LAzVagYhGGIMpDt61eNfBNfYAn+Gf0rrksc3JEzzM64gHanQv3BqhgSkIzuI99O3BVYgjcrUjbKs9a1BRerBwNaw1K88J91zOLKFGdxHVCA1MQfA+vN0EEVdD35Js10sUVcHCezAc4nEmkuVSewU1uouoRmhgioO3vKJu+ulbvDdhD7DIW1L5WxHunjDetLL9SuKAfKRuRveAGmXUCA1MQbBWELyxhKPMVeW9F+9b8kzkar+n/q24dML4fYE0+F8omtI9oEbZNUIDUyy8LTlBt+wfityoy7dkm34mcrUjIvfgRbfsgwJp8DObbQVLBjXKoBEamAKJXO08r1vcKTQuAnuAR9Z5K8dxQA50tlDzQLdskdjDCwqmsi6oUTaN0MAUz1XOzxumnxLRm1G3nxXaOgAAp1nBrWPLRyEavHMRhhVU4u3QGEWuVkQVQtSoe+7RCBPtCiZphTO6ZfPWB/Zq47Pz7amRvxO9L6sfW0g1P90aNll1Ny6SVviBmhltel/UqEtWa4QeTMEkrfC8yHW6Zb8ufzb5UBsPPZE0+aQVvqdmRpveFzXqktUaoYEpGLYLcJhVlOdh0PTTC6w3TiXQreEtpp+eAIAxgcvPFNHYDFAjHu7TCA1MCYhc7SwAvCpw6ajhkOtVeYBr4+EfslIXvEvzOK9dk/VAjTZlTY3QwJSEOCC+YOFxw3DI35T5AV4uaeEdEtnyhWW3e70+QrmCGq3PehphkLckMDf8dcMhIgfghuhbEgAezTlHZFNYvZwrGbppxkkrLEVBcdRoXdbVCD2YcnExQ1lF+pbkTlNXDTvDkqVVbyMOGmWoi9wBNbqfdTVCA1MilmsBL5VVFH2AR00/vVYbn31S8tS4MRzvm6xF74uCQ9wBgOORq5ViedQBNbqHTTVCA1MyWCJVli/VoG7ZQZZEr6yYfjpqOOQy6/8tugz/oKy9llCjL9lUIzQwJaQ9Zf+FhAQrz/TTX9fGZ/9c5PAdL4bjGYbj7Tf99BIAXMjYaiNqT9kvS5yedFCj7jTSMtygUEw/tVlDqm5pRK5W2BtDBOpKZ1wbr+R05GrHJI11D6afPp/xjb6SNgA8GrlameIu64IabQwamBKjW8PfqI2HocTi0AkANOOAhOww3YciOxqG49Ev1BOGQ4YAwJE5v6QVPt2eGsntMF9WUKONQQNTclhL0lmJb8nV0Ie4yYor0f9eWPlmMv10N3s4h1kbD1XzoF+sPZGrFZKtmwXUaH3QwFQA9gBfV9DmokycYr3BKwlqtDYY5K0A9G3VnrLtvGrR5gx1/0l7yv6zoieSBdRobdDAVISkNfdPkavtKur4viJusGBhI2nN3S56MllBje4HDUzFaE/Zv0/fJgU348/KHQA4056y91Vlt4gH1OguaGAqBn2L0LdJxmzSovlR5GpHktZcEdXplIMa3QUPO1YUlk26AwD2Gw55EQC+VfScumA6DsiPWbX+ngc1QgNTadgBs7MAcN5wiAsAJwTaS+RByJrV96THshH9rhFuU/cQpp8ektzvWAaELheKnkRZ6DeNMAbTQ0SudjYOyG8krfAw28koou5IAgBXk1b4YhyQHWhc7qXfNEIPpscx/fQgK4Go+jBdvNxwi7zaLzEWWfSyRhiD6XFY47DzhuPtBIAndMsepD8s4/QhANgqMOwXrHTkjTggC8sN2Bu8fZwRRi9rhB5Mn8Oaa+1kP/9+jXMsEQDcZP83ilwtLGiqfUuVNUIPps9hB9d6Mb29Z6iyRhjkRRBEGWhgEARRBhoYBEGUgQYGQRBloIFBEEQZaGAQBFEGGhgEQZSBBgZBEGWggUEQRBloYBAEUQYeFehzqnzOpV+YaPJpNFkvj0ZoYPoEWSd1TT+FspzU7TWGxpY12j5gDz48IK7RRPNejeanlzW6PI2nqbsGT1N3Ry/XGukVJpr5ajQ/TV69PJ2PRv1kYJQ1Fi8ThuPpumUf1C17FAB2F9BpsFMtbSZphRfjoNF3dXg3Y2jM07cP2AcfHihWo5uL4cytxfDi5Wl1GlXZwBgA8GuOS8LI1UYUTqlw+q3eaxWZaJZTo8m6Go0qa2Bg+QuVcnw8jlxtm8LpFAb1WvqxYn2VoF7L3rHyazRZl6vRV2UOljeGQ45yBMCoqD9JWnP/onhauWE4nkGXQ4ZD6BvxP5Y4aG8CwHHDIY8AwPWkNfdF0RPKi6Exz6DLob1j1dBo79iyRrcW5WhUdQ/m2hpbdusSB2QPa4ZVeQzH22045BL9z6LnIsDhyNXOFj0J1QyNebv3jlVXo8l6do2qnmjH6849pmgeuaFbw1tNP/UqbFwo75h++q5uDaveNSmE7QPDWyeaqVdh40J5Z6KZvrt9IJtGVfdgJgHA5bik8jtJpp9eAIDRouchiRsAsKfXGuBPNHtPo8m6mEaV9mDigPDu5e9WNBXl6NbwN9iSsFceXGCZqddNPz1BPbOiJ5OV7QPD35ho9qZGE830BPXMeC+utAdjON6g4ZBrnJftqNpuBtuSv15AvkSenIpc7YWiJyHKRLM/NJqs82lUaQ9GIAYDVXu7MOMyq/DBpX/D0wBwBABGAGBb5Gpa54f92wH6cClunXGUnYuqHMy45KrRZF3TOj95asTORXVNpT0YWP4CXgKAOsclcXvK3pG05kq/7qfLotp4GEp8cBMAaMYBCdlD+2EcNLh7I1PPEQCeMBwyBACOzPklrfDp9tTIRUnjKYcui559Tb5G89N3Nbo8za/R0NiyRnvH5Gt0czF8+q9f6k6jXjAw1CO5wHNNHJDDcdAo/TYp7zb8JigLcJt++jx7e8qAfpkerUrgl8VcpGk0WVej0URTvkbdBH6rvkSCyNVmAIArt8VwSKmXSWwr+oKEBzdOWuErcUB2qNw9i1ztjTgg2+Jg6e/azDgcfdNe063hr0uanhLYVrQUjW4uhq/MT5MdqowLZbKuvTE/TbbNT8vTaPvA5hpV3oOBuzVNeIO9u1hLztJh+qkHAFlPfhd2epx5le9mzAE5F7naMxKnJZWJphyNJuvFaDTRlKPRZH1jjSrvwcDd3r2fcF52wXC80iV6GY63GwCOZxhiIWmFTpGlKahXGQdLa3/qXd4RHOYptvQqHUNj2TW6uRg6RRkXWPZoZuans2vEll7r0hMeDIi/9aM4II/GQSNRNC0uDMczDId8luGtMhO52gHJ08qEQDLkal6IXE1W7CAzQ2OesXcsm0aT9XJpNNHMrtFkfW2NesKDgeXArchyh3owwwqmI8r+DA9uHAekdFnKcUAaGbdOPWp4JU4pK5k0mp8un0bz09k1ooZ3rf+h0qepV3Fz628d/i7vdpxu2Y8AwHtJa07UTZQCK7lwBgD+g8Dll+OADItsOauG/V3PJq3wU92yqUv+m5xD6HSY2788O6doil3DSi4IazQ/TYZFtpxVc2txWaNbi+GnDw+Ia/Q//8f9GvXMEgmW3XHqkXwmcGnhSwvTT+nyzhO4NGbLvNI9uKvJsJ1dilo+E01xjeanyaNlNC6rybCdHU/W79eoZ5ZIsBxcjFjQipfR2vhsYQFFVonuhMClM1UxLpT2lP0Tttbn9RYN00/fVTStrmCV6IQ0qopxobz3krhGE837NeopDwaWlxq24RCeWr0dEnayN9eta7Y0+leBSxciV9ulYErKYcbiMO91cUB2xUEj99QCtjQS0miyXk2NmLHg1mh+muy6PH1Xo57yYGBpzR9eZuc2eKHryCu18dnvK5jW+je17IMi1yWt8EX5s8mH9pTdYNmgXOiW/ayaGW3M9gExjW4uVlej914S02j7wL0a9aCBmbvDslZF2jLoumVP53nojlX/56XRnhr5OwXTyYWkNUeXsvt4r9Mt+yk1M9oYVv2fl8Zfv1RdjW4timn08MC9GvWcgVnBOcHrqCczm6OR4a1RE/dCfye2FOUtX2qyQH7ecGtUZBKdLCbrYhpNNO9q1LMGhgUURdfrBgBcq43P/qnkad0Da4rGta2etMI31c0oX5JWKLKUPalgKuvCmqJxaXRzsXc0urmYTaOeNTCscv1IlgQi3bJfMf10VmGil897QdIK/0rNVPInaYXnWbdBHkYNx8uzqBO3RrcWe0ejW4tiGg2NLWvUswYGlt3wOA7IvoxZiku7UobjHdStYWn9bFivaF53/3QvdUpkRzSeYTt4PHxb0ZTugfWK5tZIZafEvLk8nU2jnjYwsPwQtyWk0A8aDjlXGw+56s5swhOcn0+qXrB8LSJXa/LGywyHPK5uRvfArZHKkgtFMVnn12jv2LJGPW9gYNnIXGW1SrImO9VNP/216acXDMfbn2Ug3bJ5g8hZa3iUFnZeiecNmUsAfvsAatSBnVfi1qgvDAwsG5mLcUBkRPaN5TgAmTH99DNW+4QbXgPDylz2JGzZx7OM3alwOl/yMKeBYWUuexK27OPWqG8MDOOs5KLIdH1+gXo0pp/ybmXyBip7Zl2/Djy/X15b1ajRvXBr1FcGJg4aSRyQPYLboxtBvZgrpp9eN/30Um18dtJwvEOG4z2+QVGrhzjv8aGEeZaWOCBc+Ramn9rqZvMlqNEK5qf5NJpopnZZG3ErY3nnonHM9FNd5KzFJlC3cKdu2XXduvv8G87Syixa9QbgaWIViR5onGimdQB4ji3tYgB4mwXtMjM05g3uHSPPr/Ao5uanyWnBg30fc36e/oGFlyTsfNFuptlqT+Vr7N+5NKrKgcYMcGvUdwamQ+RqRwzHe8NwyF8CQB67EmYG157LIGwfGN6yfcD+4d4xcniNLNTRiWZ6dX6anLm1GP4VqwXCxfaB4a8/+1r4CvPcVm7d29Tg7B0jp997yf7xrcW52xzD8n45hfqMM6NIDe5TAPCAyBjr0LMB3hVwa9RXS6TVxEFjIQ7I7yhuViUDLtd7+4D9LP2Sb5Divpv+76sPpnXLs6+FrwPA06uMSwfqKbnPvhZyZUHHQYP37Bh38iMzLtcA4Khk4wK9vjyC5UAvt0Z9bWBg+cGOI1fblbTC4wIZi3nBFTzcO0a6Kkjd7edWwlLnv9vFR492sjk54Pk9uWMwe8fIf+G9hoNeD/B24NKo7w1Mh/bUyBsAsEPgcFcedO1hsdae3W6vDvK2AmWp890srY29Y+Qo59jKvqTsAJ6javwKeMGy4NIIDcwK2NGCA1mChyrg7HLI+2bn/TxPHKlMBdWVJud10+WwH0EDs4o4aLQjVxuJA7ILAN4ROINRNLyxia4/PzTmSTuLVQCVbKxfddDArEMcNBYiV/sDAHiwYjsEvN5X159nB9943tRlikv0yxKmVKCB2QS6PIlcbR/1aJJW6LMHNVevhiepjCVDfd7lxz/nTZ7iKF+QzE+TNzjHVlaGgaXxK1vGTDRzSfwrA1waoYHpEurRtKdGJlih7QdF6oRkoOtlDPMy3uny4++wz3fNZF17tctypDMriz93Cc8ZI66xL0834gxVDruhTM3hVMKlERoYAZhXMxEH5DfigAzFwdJ27xn20KvI5uQKlr73kv0XrLfNem9s+u+n2Oe4ubkY/mgDI3OHGpf3XrJf5hlToIgU99+ZFbIWaWvTDWUKaCtBIO2g3beZvDJgBZN+QX/ioPHlv9Mvi+EspaE/wZLdjIxBRi73+9bi3O3JuvYCALww0UzfYollHU5nrVny1y+N0N/50YlmeoL10Om8vSP6/0/WtfMCw/KekOZObLu1ONeerGsH2Nb8+5JPZffDEolbIzQwClguctWY2ehtafppyjGksHFixkRJESS2XHpV0nBf4/y8cDxlsq4tDI15u9hZJH2tmNpkXQsnmvloVCG4NUIDUxxf8KSrG443WETTsbzIuwDX5elGcnm6sdkOGpdGQ2PeoEDcqTKIFODCGExxfML5ed7yjZWC08DEkauJ9L3iBTVaAWcBrniyrt1AA1McXF8QwyFD6qZSLKxrA8/vx/vFF4VLo71jvavR0JiYRmhgCiIOCK8rrfIcTaEYztIuHE/tlVwMzPw0atSBHYzl1ggNTHHwPrw100+fVzSXwmDtW7h+L97qdxng1mii2XsasfYtXL9XJ4ETDUxBxEHjQ4GdkFMKm8AVguGQtwSS1HKpvXJ5WkwjtpzoGfaOiWuEBqZYRJK+eiahi9Ur5s0fiQWKU2WhrzUaGhPTqFOcCg1MgcQBeZX3XJPhcNdYKS26ZT8ncFmuTeXnp/k1EqiDU1q2D2TTSJM7HYQX00+vbFDacj0ORK6mKuU9F0w/pS73r9Ypu7keceRq2xROa00mmmIaTdarrdFEU0yjyfpdjdCDKZikFYocwHvXcLxvKphOLujW8AMAcInzwaV8oGhKG3JzUUyjobHqarR9QI5GaGAKJmmFFwUuMwyHvKJgOrlQGw//UMAjoEvKQgzMrUUxjfaOVVejZ18T02h+mqCBKROsbapIXOG7pp9OGk61qsyxnt4vCly6kLTCOQVT2hTWNlVIo4lmOlm1SoBDY+Ia3Vq8VyOMwZQE009nBU/kLsQB2cNOdpcaw/F2Gw65InAp/d0e5KxNLJ2JprhG89NkD2/tnSIYGvN27x0T12h1bWL0YMrDEcHrBgHgoOS5KMFwyAnBS68WbVwYPa/R3jFxjdYqfI4GpiRErkbd8GmRaw2HvG766fO6NVzK0/HUczH99ALrBMlN0gpPyZ8VP5N1cY32jpHXJ5rp89sHyqkR9VwmmuIa3VxcW6OvZp4ZIpPrumX/kcB1vwkA9a2/dfhf4qDxCwXzEsZwvP2GQ4IMxZ1mPn91R0PytLJw/eEBcY0Gfufwv1yeLpdGQ2Pe/r1j2TR669DaGqEHUyJYhuphVnZShFdMP31Xt4ZFe2BLQ7eGHzD91DMcIvTGZ5yJA/KMxGllhmWoZtJoopm+u32geI22Dww/MNFMvb1j2TSan15fIwzylhBqJNhDLEobAPZFrlZI8SOWRHdJZJtzBVcjV9sjcVpSoUZChkaT9WI0Ykl0mTWarG+sEXowJaQ9tVScOst5mxoAXDP99EptfPZQXlvZhuOZtfHZSZb9meXBTVgh9dLCCohn1miimV75wWuzh/Layh4a88wfvCZHo/npzTVCD6akMC/guqReQTEAPBO5mpIGcobj7WSnomUUvk4AYE9R3hcPzAuQqtFkXY1GQ2PeTnYqWppG3Xhf6MGUFLYtK2v3hH4RLtClFzvBLGdQxzNMPyUst0VWVf1mFYwL3O1HLVUjuvRiJ5ilMDTmGRPNlLDcFmkadbu0Qw+mxOjW8NbaePjnrO2ILBc6YYWUIla46WO6KtusBALrW7QTAL6mW/Ygq6E7xFnlbDNm2lP2saQ1p6K3lBK2DwxvffY1dRqxwk1LGnVKIKwH61u0pNH2AXuQ1dCVrtF7L9nHbi12pxEamApg+kt9fK5IfIDXI1qjn3RNcv+g9ZiJXO1ADvdRAuu11PMaTdb5NEIDUxFq47P7dcs+rbJ/c0HQt3Wzap7LWvzgtdn9Dw/0rkY8nksHNDAVggV+r9H/LHoukqhMQLdbWOC35zQS3U7HIG+FiFwtbk/ZDmviLproVRauxgGxe8m4AAv8vvdS72g0P03sLLk66MFUFNZhoBRndAQ4E7ma6MHBysA6DFRWo8l6do3Qg6kokau9AQAvZOnRXBAzcUCU9MouG5P16mo0Py1HIzzsWGHioHEVAN6m6+Qt28zBHHYwRKHr+MtJKzz++as7GklrrupLh665PH1XI+Nr5dfo5mJ4/K1DOxq3FuVohEukHkLCGSYV0PX7SEnquRSOhDNMKljSaK16LllBA9NjGI43qFv2s7plP1XgTgZ9UD+IA/JB0grnktZc6Su55cnQmDe4fcB+9uGB4jWanyYf3FoM524tqtEIDUwPY/opfXhPihYREoA+tITFh5AumGgWoxGLDykHDUwfwNL8v2045HFWvnGnhDdnzBqcf8KOHHyYc8fFnoKl+X9775gajdiRgw83O24gGzQwfYzppzY7APcYO2y33mG4BVa/pNOruRm5GhqTHJhoims0WS9eo/8fAAD//7BDnqfZ2hPbAAAAAElFTkSuQmCC;fontSize=8;" vertex="1" parent="1">
                    <mxGeometry x="270" y="131" width="30" height="30" as="geometry"/>
                </mxCell>
                <mxCell id="14" value="OnPush" style="edgeStyle=none;html=1;entryX=0;entryY=0.5;entryDx=0;entryDy=0;fontSize=8;" edge="1" parent="1" source="10" target="9">
                    <mxGeometry relative="1" as="geometry"/>
                </mxCell>
                <mxCell id="10" value="main branch" style="aspect=fixed;html=1;points=[];align=center;image;fontSize=8;image=img/lib/azure2/general/Branch.svg;" vertex="1" parent="1">
                    <mxGeometry x="170" y="130" width="32" height="32" as="geometry"/>
                </mxCell>
                <mxCell id="11" value="" style="endArrow=classic;html=1;entryX=-0.052;entryY=0.677;entryDx=0;entryDy=0;entryPerimeter=0;fontSize=8;" edge="1" parent="1">
                    <mxGeometry width="50" height="50" relative="1" as="geometry">
                        <mxPoint x="71" y="146" as="sourcePoint"/>
                        <mxPoint x="169.336" y="145.664" as="targetPoint"/>
                    </mxGeometry>
                </mxCell>
                <mxCell id="13" value="Dev" style="points=[[0.35,0,0],[0.98,0.51,0],[1,0.71,0],[0.67,1,0],[0,0.795,0],[0,0.65,0]];verticalLabelPosition=bottom;html=1;verticalAlign=top;aspect=fixed;align=center;pointerEvents=1;shape=mxgraph.cisco19.user;fillColor=#005073;strokeColor=none;fontSize=8;" vertex="1" parent="1">
                    <mxGeometry x="50" y="136" width="20" height="20" as="geometry"/>
                </mxCell>
                <mxCell id="16" value="" style="shape=image;verticalLabelPosition=bottom;labelBackgroundColor=#ffffff;verticalAlign=top;aspect=fixed;imageAspect=0;image=data:image/png,iVBORw0KGgoAAAANSUhEUgAABh8AAAB+CAYAAAA0swCFAAAgAElEQVR4Ae2dy48k2VXGZ8v/wcYLxBqv2AASC29AAu+MsIQAMawQMjY7gywkkCUeG+8MwrIE2EZGQoaRhoc8wt7MeOTpGaa7PVPV7u5pz6O7p7urq2wU6Kvy5z518kZkZNTNvJGRvytVR8SN+/zi1+dE3BOZ+dyTp2cdf2gAAzAAAzAAAzAAAzAAAzAAAzAAAzAAAzAAAzAAAzAAAzBQi4HnajVEO0AJAzAAAzAAAzAAAzAAAzAAAzAAAzAAAzAAAzAAAzAAAzAgBgg+8MkPPvkCAzAAAzAAAzAAAzAAAzAAAzAAAzAAAzAAAzAAAzAAA1UZIPgAUFWBIqpJVBMGYAAGYAAGYAAGYAAGYAAGYAAGYAAGYAAGYAAGYIDgA8EHgg8wAAMwAAMwAAMwAAMwAAMwAAMwAAMwAAMwAAMwAAMwUJUBgg8AVRUoIppENGEABmAABmAABmAABmAABmAABmAABmAABmAABmAABgg+EHwg+AADMAADMAADMAADMAADMAADMAADMAADMAADMAADMAADVRkg+ABQVYEioklEEwZgAAZgAAZgAAZgAAZgAAZgAAZgAAZgAAZgAAZggOADwQeCDzAAAzAAAzAAAzAAAzAAAzAAAzAAAzAAAzAAAzAAAzBQlQGCDwBVFSgimkQ0YQAGYAAGYAAGYAAGYAAGYAAGYAAGYAAGYAAGYAAGCD4QfCD4AAMwAAMwAAMwAAMwAAMwAAMwAAMwAAMwAAMwAAMwAANVGSD4AFBVgSKiSUQTBmAABmAABmAABmAABmAABmAABmAABmAABmAABmCA4APBB4IPMAADMAADMAADMAADMAADMAADMAADMAADMAADMAADMFCVgd7gw+NzoU+7e+8/6G4e3+1eu37cvXztJn9oAAMwsGgGZOtk82T7njw97S5sIZHqKW8r4Efwmdw3wMAhMoAfqeMz8SHYj0O0H8wZ7sUAfgQ/gi3AFsAADExlYI4+pBx8ODnr3r3/sLtxdKc7un2ve/Dh4+709KwjoQAKoMDSFZCtk82T7ZMNlC18clLnBnjKAv7e1sGPLP2/CvNDARToUQA/UsFn4kN66CIbBVDgEBTAj+BHDoFz5ogCKLAdBeboQ1aDDydn3d337ndv3LzVPXz0ZDtK0CoKoAAK7IECsoGyhbKJBCA2eAjAj+wB3QwRBVBgFwrgRzbwHf54Oz5kF2jSBwqgwJ4ogB/Bj+wJqgwTBVBghgrMxYdcCj7o4816y1eLbU9OTmcoG0NCARRAgd0qIFsomyjbyFcwrb/5x4/slk96QwEUmL8C+JH1vsOf8sOHzJ9nRogCKLB7BfAj+JHdU0ePKIACS1FgDj7kUvBB32+urxlRZISEAiiAAihwoYBsomyjbKQXSNj2PQTgR/h/gwIogAJZAfxIn8/I+fiQzA7HKIACKCAF8CPZX/Qd40f4H4MCKIACWYHWPuRS8EE/sKrvOSehAAqgAApcVkC28eJHqPtudMlXQAY/cpkbjlAABVDACuBH1vtJfIhpYYsCKIACqwrgR/Ajq1SQgwIogALjFGjpQy4FH24e3z3/odVxw6YUCqAAChyOAvoRatlIPvEwfNOPHzmc/xPMFAVQYDMF8CPD/kP+FR+yGVOURgEUOCwF8CP4kcMintmiAArUVKClD7kUfHjt+nGnX8UmoQAKoAAKXFZAtlE2kuDD8E0/fuQyNxyhAAqggBXAjwz7D/lXfIhpYYsCKIACqwrgR/Ajq1SQgwIogALjFGjpQy4FH16+dnPciCmFAiiAAgeogGwkwYfhm378yAH+x2DKKIACoxXAj+BDRsNCQRRAARQoKIAfwY8UsCALBVAABUYp0MqHEHwYdXkohAIogAJd18pQ71PAQxqRUAAFUAAFygrgR1g0KpNBLgqgAAqMUwA/gh8ZRwqlUAAFUGBVgVY+hODD6rUgBwVQAAWKCrQy1AQfipeDTBRAARTYOwXwIywa7R20DBgFUGBWCuBH8COzApLBoAAK7JUCrXwIwYe9woTBogAKtFSglaEm+NDyqtM3CqAACtRTAD/ColE9mmgJBVDgEBXAj+BHDpF75owCKFBHgVY+hOBDnetHKyiAAgegQCtDTfDhAOBiiiiAAgehAH6ERaODAJ1JogAKbE0B/Ah+ZGtw0TAKoMDiFWjlQwg+LB4tJogCKFBLgVaGmuBDrStIOyiAAijQVgH8CItGbQmkdxRAgX1XAD+CH9l3hhk/CqBAOwVa+RCCD+2uOT2jAArsmQKtDDXBhz0DheGiAAqgQI8C+BEWjXrQIBsFUAAFRimAH8GPjAKFQiiAAihQUKCVDyH4ULgYZKEACqBASYFWhprgQ+lqkIcCKIAC+6cAfoRFo/2jlhGjAArMSQH8CH5kTjwyFhRAgf1SoJUPIfiwX5wwWhRAgYYKtDLUBB8aXnS6RgEUQIGKCuBHWDSqiBNNoQAKHKAC+BH8yAFiz5RRAAUqKdDKhxB8qHQBaQYFUGD5CrQy1AQfls8WM0QBFDgMBfAjLBodBunMEgVQYFsK4EfwI9tii3ZRAAWWr0ArH0LwYflsMUMUQIFKCrQy1AQfKl1AmkEBFECBxgrgR1g0aowg3aMACuy5AvgR/MieI8zwUQAFGirQyocQfGh40ekaBVBgvxSQoX7l2s3uu2++3V0/utPdefd+t0+BgW2MVRpIC2kibUgogAIogAL9CsiP4EMuLxxFPyJ9SCiAAiiAAv0K4Ecu+xA93+BH+nnhDAqgAApEBeRDtrEutK5Ngg/xKrCPAiiAAmsU+NGP/q/78PFJd/ud97pX33jrfBHpEIMQmrMW0KSBtJAm0oaEAiiAAigwrMDp2Q+7Dx4+6t669c7B+hAvFsmPSAfpIV1IKIACKIAC6xXAj1wEIPw8gh9ZzwwlUAAFUEAKLDr48MLRS91nvvn57jf+7Y+6n/m7j53//dJXPtk9/+KfdF+98UL34PQRFKAACqDA3imgxfbjOz84N+Bvff9ekwjyugjzNs5rrnJamvuuAg74kb3778GAUQAFRijw+ORp9+bbt7tD8iHyS5qv5q357yLhQ3ahMn2gAAq0UAA/gh9pwR19ogAK7KcCiww+fOvud7pf/Zff/0nAwYGHvP3olz/e/c13vnTlK/fJ3/rdTn/bTD/9kZ/tPvdnf7G2C5VRWRIKoMDyFbj77gcHE4Bw4EFz3kXatR/ZxZzoAwVQAAWyArKthxKA8FyzBts4xodcVvWfvvrP588nekbRPgkFUGA5Cti2buPFo7m16bnu4urNxY/8/C/88lbXurSOpj5IKIACy1ZgccGHL1772tqgQw5C6JMQV/kURO3gw2vXXj+/QY835wQflv0fkdmhwFQF/AmIJX8Fk+bmTzxM1WmTei38yCbja1V2rB9qNT76RQEUmKaAPgmwZB+ixSvNT/PcRdq1D9Gijexz31/rRR0HHvR8Q0IBFFimAviRutd1135kaPQEH4bU4RwKoMBYBRYVfJhipB2I0CclpiaCD1OVox4KoECfAse33+n+839e7r72jf/qvvKv/3G+1bHyY9LXD/k3IOb2dlCt8fg3HvJXLY3VKOq1br+VH1k3rjmcLwUflBcD5XMYJ2NAARS4UCDaSPmSkg9RSX11huxsLZs9x3Y0v9JXLY3VaCxTrX1I6QWmsWPfVjneat2WsrSLAttXYKyNxI9cPLMN+dqxV6u1H8njJPiQFeEYBVBgigKLCT7oY2kOJEzdfu7bX5ii4fnH0HRjvc1UWvQp9cfXLpVUIW+JCvzaJ36n+95bR1uZmtqOf7/3B398qR/1G8+/+N8vXTp/1YNXX79xHnBQ0KH0p/Mx6YeXZcyX+OaqP/WgOca0qUaxbt9+Sz/SN6a55xN8mPsVYnxTFZBdz7Z/alulemo7+pFSmavkDdnI7EPUj340c4k+RIEQzUvzy2lTjXL9fDwHH0LwIV8VjlFgewrIjtd+BvBoN/ERX/zSP577k9rPRZvaSPzI5ee2kq/19e3bzsGP5LERfMiKcIwCdRTY5rOG2o7PGfITOW3iZ3LdKceLCT78ytefv3LwQUGLW49WH07WCVv7kw+l/gg+lFQh7xAV+NM//6ufGNLaN9nWU4Z6KOm8HzZs2GuNRW8YlQIOOU/lnD58fHIefLh+dGdxb65qTnJUmqPTFI1cd2jb0o8MjWvO5wg+zPnqMLapCvhmXTfl20h6ALAPUfs6rtnXGBsZfYjG8MHDR90SfYiCD5qX5hfTFI1i/dL+HHwIwYfSlSEPBeoq4MX++DxQswc9U8SFonU+wj6r1rOI5jLFRuJHLgcf9OyWfe06TubgR/IYCT5kRThGgasrYLtd8/4/jkprZjFlfyW/ss1nkdi39xcRfHjh6KWNAw8y7H/9yt+v1Pv0Nz9vbUZvHXzwDb8WY/QnQx1T36cS8nehup34VRal4IPLxf76+ojjYB8F9lWBePMtA1rzJtuaqE213ZdkpLOTkHGPDwl9dcfk62sxcqChdKxyTvo6IhnzV17/Xnft+tGi/jQnzS1+5dIUjaxV37a1H7HtjvY8jrVk7+N578vvuA1t/ak8t+9y3mb/o3zVU77qxja0r3aUfE55/rMvzL7PfcX6zmOLAnNTQPbdN+TZ1m9zrDV92hgbGX2I5nV69sNF+hD5RPkRzS+mKRrF+nm/tQ/xeOwr4jOEz9kP2Gbbnvu8bbj9gsopqZzsuttWvvaVss+J9j+Wd5/xvOo739s8JrehrftSmVK+2tAclFTGbWqr8iQUqKGAXzpSW/IRcfGmRvulNvxsUnru0TOIX8wqnS+1NyZvio3Ej6wGH7KvHdJ+Dn4k204dy/batsbxRxur/ZiijVbdWDb7J53PvkFt2ea7bhyD289tqZ7nEMfDPgrMSYEWzxr2FUM61HwWKfWziOCDAgabfNWSAg/+gekcXf7olz9e0mkwzwYzG00ZypjXZwh9k+8b45IxVVuq7+Q60eC6fZUlocDSFSgZRxtybXXeZfygoGOdG0q+we8rMyb4oIUr9+8x9LWX8/0bD6WAQ8xTuZhkzPUXyyxh3/OKc52qUWwj77f0I7bdcUzxBrtk7+Vbon9R3exzlOd2Sn3ovNu2/4ntRP/i/OiHnBfLldpTub7+dY6EAnNUoGTrNU7Z9OhTdKwU7b5u8DdN2Vfo2H+btjfGRmYfovEu0YfID2peOU3VKLfj45Y+xGPQtvQMoXz5gvh84HLRpvt5xn7D7apMyefI3sf6Kq8+cn236/a0ta+I9T2mWN956l/7Ts5Xf853myob29B+nLvbYIsCV1VAzxTyBzHJF/h5xDZceUo+1naTQEHfs4n9lM/HNrOfyuOMYy7tT7WR+JHLAYiSry3prbzWfqRkK2VPs123/Y32O9d1GdWXbXZSHbUX81RX5ZxcV/kxqV4sp/1cRuVVLo4ttsE+CsxJAdvwPCb5iGzDVeYqzxp6lrAvyv35OPumuKa2bg3NbQxt5R9a/C7cc7HT0kPB0KDzuRxAGApExMBDn4HXd+1tkrKxdV0bThtXG1uf99Y3yyqvlOspLxtRGduSUe0bi/tiiwJLUSAbR83LBtI33zKyKheNpY6HDK9v4FXOf1kzteebeDsGlykdezwuM7Qdc7OvxZR8Mys7usQbfs8rajZVo9hG3m/pR2S3SzfPHmPp5jr7CdWPN+Su6+1Y/6Py8jel8WQ/5LL2ce6rNN5SnsuzRYE5KiBbHn2Hx5j9gv2OAwT2IfYRrje0zX5DbUY/FfeH2vG5MTYy+xDVXaIP2VXwoaUP8XXXNvuGvjzlZ78guy87n5PL+Tkln4/HKpt9Uck/qYzK5tT3TJTLep45X+3mObhs9lW5b45RYFMF4vOA68pex2cN23fl+XlA/qLkX9xG3vYtGrlN+x23XzrexCepf/zI5SCC/GNOUzXK7fi4pR+xnSzZ+fxcULLpmkN8TnB72UarXK5fOlZeTm7Ttjz7C5Uv5eV2OEaBuSggu1zyBbWfNewThuZtX+Uy8jt+tlHeps8ibiduZUdjHGBX+1WDD6Vgwye+8anu+Rc/e+kTEWMCD2prSvChZCAldDTCMr75hlhlspHMhjW34/Pa5tTXRy7HMQrsuwK+4Y7zyAs2NrS+GVdZGc5oSGP90r7Kqq+c7BTyOPqcSK7fdzzmY85aTIkf4+Vrly4/IEifrFGf3s5v6Udst0s36EP2PvqXuO85xa37iHnaz/5HeX1tlfKVpzZiyn0NzSHWYx8F5qRAny2Xzdc5p3yzrnz5jbE36fZTsc3Sgpb7G7Md40eiD1GbfF3Gqh/JGg1p39KHxHHZ3ka7LJucAwKqk+1/XgByu9mmO99b1ZMviH8+p21u12PUtpSir3HZOB/VcX5uI/cVy+Y2Sn2ThwKbKFCy1bL9eTGp7/lkqC+142eN6B9cJ/oZ+xE/7/jYZads8SOXv8Z2F1/f19KP9PkJsSP/IdvqVLr3z+X6bLTKZZ+S7XZf+7kPHUd/oWO1FceqPBIKzFUB2fbsLzTWWs8a9iGlPqIm9hnR10QfE8teZX+xwQcHEPzphrGBh30IPuSHhQhANubxHPsosCQFZEx9k+15jbm53zT4oLajA5BR1nFM8bzL57xYfmh/zA+8aWE9/oAZPzi9umiUNRrSXOdKN/y79CO267qJjotEMV/n8p9svm/whxZW+nyD248LOOqj1Jby1U5MpbJ5PKoT5xTrs48Cc1VgkweCfFM/9obd/iTe7EsPLzrldsdqNcaPRB+idvmh0FU/kjUa0r+1D/HYsv1VvhZisu+Ix7b/fYs2fTbcfiUu9DjP43H/0QeU/E4sH32N5+MxulxfvsYS+1J5ly35NbfHFgWmKCAbXbLf2Xbncl7oGdunfEp89sjPMm4vPhepT9VR2SkJP3J26Q3d60d3zv1k1HKKRrF+3m/pR0q20+OTTbWdtz2NPiTu53LZdqvN7Cdi326/z17HsaitWFfHGktfXc+HLQrMRYFdPGtorvYRJX/Q9yzi/Oh7rqrbIoIPv/iV31xZOPpM+OFo/bC0f+PBwYiScXeeF5zGiiujZ0Ob60QD6JvtXMb5Ns4lo6t2ZKiVfN7lY3vZmMdz7KPAkhSQIYw32ZqbbrSjUbWhjfPON+zxXN9+fGgoLSqVHIf7nmKwX339xuBvN+h8TLffee/86zLuvHv/0o3yrj7Kts1+NCc5Ks0xpk01inVL+639SByTb+KVN2Tvc52hm237mVhH+86P/iT6rVg++iHn95WNflEPCvZfrscWBeauQMmua8yy6TrnVCpX8hMu76180Tr/4AWn6Ndcf912yEZmH6K23rr1TrdEHyL/pHlpfjltqlGuH4/n4kPsM6I/kP3NC/Jx7N6Pdtt52pbql/pxWfmFmNRu7N91o9+J5aOv6Svbl5/7UrsuGzWJ/bGPAlMViM8HbkP2Wvkx5XJ+Rohl1u1HvyLf0feX/YXL5Wemdf3p/KY2Ej9yOYhd8rVDurf0IyU777HmBf++e3+X19Z2V9uccl/Zbg+1n8cS+/EzTe6PYxSYqwKlZwiNVXa7xrNGnHfJ74x5FnEZ+aCrpkUEH/LXKzmIEAMQEmpM4EF1HagYK64MZr7RVl0bQBvdfOz2Xd/lbETjTXK8EVe9fOy2ZJBLY/F5tiiwFAVklPONtG7u4013n5Hd1HhGB5D7kJ59jkPn4sPCJtrrbRp95NnfJ6qtjvObmPrKpVffeKv77ptvLy7w4KCG5qY5aq4xjdUo1unbb+1H4rjsA+wT+ux9rJNvxuM57Y/1Pyqr/qL/cVulcfSVdX/eug22KLAvCvTZ9egPNJdSuXV2v1SnT5eSH+srm/OjjezzIarz+OTpon2IfIn8iOaZ01iNcr18PBcfYv8RbbjtsH1KHruP9Tyiv5zyQpHOl/pRfuk5RG0qP6aSP9H5PFb3k8fel1/qy2WjJnEs7KPAVAVyUEHt6DlE+THlclPs+pBfcXvalpLGtOmzj9sZayPxIxfPbEO+1pr2bVv6kWx7PUbbz+gb1j1zqK7ryX/klOtnu53Pu77bzLZc5e2nSv25PlsUmJsCfc8DNZ418lztJ5zf17fP521p7S2XWXe8iODDV2/8+8onH2IAQsGEsYEHGf1NkwymbqKjUbZxjHlqV+VkIJ1s6JWvOkquGw1rvkmXYVVeLOM85ZNQYOkKlAxgDgxkIytN1t2A63y8edfNenyI0Hn1HZOOle/2Y/08plivxv7xnR8s9lMPDj740w+a67ZSSz+S/YRtuefq42jvdS7Ws9+IebmMfMM6/6M62bd4HMrXWGLqe0BwO0PnYzvso8DcFOi7KZe91zmnUrmhRSLVywtRbsvbuEik9rPPcbla2zffvr3YTz1EP6J5biu19CFxTvYF2V/IFufnA5WNNl3+I/sQta0y0Xe4P7UXy9tX5X5UJtfX+LJP8djjmJynbUx9+aW+XDZrEttjHwWmKFCy5XoeiM8NajeXKz2fxP7zs8g6P+D2/Pyh8vpzkk+JfsX5Nbf4kaur2dqPlPyE86KtL9lvzT6Wsd2VnY/2W2VKedFHuG5sT+2rXs5Tvn1UbvfqV4QWUGC7CshOZ3+hHms8a2Sbr368XqU+sl/KM431s4/JZcceLyL4oODCz33513sDEA5EjNm+cPTMUY8VUUZQf/GmW8Yv3jy7LRtTnbcBtQG3YXaZeJNcaq/Un/PcH1sUWKoCMsq+yfYcs1G1ofR5bWV0ozGN53xebfuvVFZt+Ly20ZD7AcHn47nc11WP7777wXng4a3v31vspx68cKQ5ymFpzttILf2I/Id9grd5jvYTPq9t9BEuH8/nMvYtLqN+3a79j9rJ9WLb2a+5vuqovZjsj0rjjOXYR4E5KrDNBwL5KvuIuLW/yee3qY9s6yH4EPkSz3Uberb0IXE+tvMlu7vO1+h8tuNqW7Y8Lgy5P/dln6Jytvsuo63aHFO/5HvcR/RRarMvv9SXy5Y0ieNkHwU2VaC0eKP7fuXHlMuVnk9i+fwsIT8xlNyen4t8bP9i3zLUxlXO2bb6nn3JW8/1Knr11Z2DH3GwwXZd9lN52TfYrrqctrL/Tj7vbSznMt6W7LbOxTq5fdf1VudLfsbn2aLAHBXY5bNGXpPKzxrZX8hvOE9b+5er6LiI4IME0O86jAkuDJX5xDc+dRUtqYsCKIACO1FAXz/kTzwcyqKRF47ktDT3/BVMNYTHj9RQ8VkbfQtWz0qwhwIo0EoBfUWG3lQ9JB9iP6J5l76C6arXAh9yVQWpjwIosE8K4EdWv8rvqtdvKX7EQQdtd5EUfCDAvAul6QMFpiuwmOCDJFDwYCi4MHROn5y49Wj1x+imS0tNFEABFKingBbbP3x8cv7Dy/6Nh6X+OOjQG1Oas38DQj9CLU1qBiLwI/WYXfeWUr2eaAkFUGCMAqdnP+w+ePjo/MeXZUcP0YfIv9iP6MdRpYd0qZXwIbWUpB0UQIE5KoAfOTv/tDl+ZJjOXQYfSp+4Gx4dZ1EABVoosKjggz6q9itff37jAIQCD9fev9FCf/pEARRAgbUKyFC/cu3m+aL79aM7B7tgFIMSuumXFlpAkza1En6kjpI8CNTRkVZQoJYC8iOyl/iQi4UjByHsR6RPjYQPqaEibaAACsxRAfzIM//hZ5L4PIIfeUbtLoMPvOz0THf2UGDOCshG2nbucvtc7KyWobbQn/v2F0YHIPSGEp94sHJsUQAF5qhAK0Md7fTc9/Ej8yDXQQc9CJBQAAXmowB+ZHXRKPo1fMh8WGUkKIAC81QAP4IfGUvmLoIPetYg8DD2ilAOBdor0MqHbDX4IFkVUPj0Nz/f+0PUz7/42W7Kj0u3v2SMAAVQ4NAUaGWo48LM3PdrLxyJMfzIof1PY74osFwF8CO7XTQSSfiQ5f5/YmYocIgK4EfwI4fIPXNGARSoo0ArH7L14EOU51t3v9PFP30kmoQCKIAC+6JAK0M994BDHJ802maKPkT7+JFtqk3bKIACtRXAj+x+0SheQ3xIVIN9FECBfVQAP4If2UduGTMKoMA8FGjlQ3YafJiH1IwCBVAABaYp0MpQx8X9ue9LIxIKoAAKoEBZAfxI20Wj8lUhFwVQAAX2RwH8CH5kf2hlpCiAAnNToJUPIfgwNxIYDwqgwGwVaGWo5x5wiOOTRiQUQAEUQIGyAvgRFo3KZJCLAiiAAuMUwI/gR8aRQikUQAEUWFWglQ8h+LB6LchBARRAgaICrQx1XNyf+740IqEACqAACpQVwI+waFQmg1wUQAEUGKcAfgQ/Mo4USqEACqDAqgKtfAjBh9VrQQ4KoAAKFBVoZajnHnCI45NGJBRAARRAgbIC+BEWjcpkkIsCKIAC4xTAj+BHxpFCKRRAARRYVaCVDyH4sHotyEEBFECBogKtDHVc3J/7vjQioQAKoAAKlBXAj7BoVCaDXBRAARQYpwB+BD8yjhRKoQAKoMCqAq18CMGH1WtBDgqgAAoUFWhlqOcecIjjk0YkFEABFECBsgL4ERaNymSQiwIogALjFMCP4EfGkUIpFEABFFhVoJUPIfiwei3IQQEUQIGiAq0MdVzcn/u+NCKhAAqgAAqUFcCPsGhUJoNcFEABFBinAH4EPzKOFEqhAAqgwKoCrXwIwYfVa0EOCqAAChQVaGWo5x5wiOOTRiQUQAEUQIGyAvgRFo3KZJCLAiiAAuMUwI/gR8aRQikUQAEUWFWglQ+5FHx47fpxd3p6tjo6clAABVDgwBWQbZSNjAvt7K/e/ONHDvw/CtNHARToVQA/suozsh/Fh/TiwwkUQAEUOF+r4Xlk2JfwIhT/UVAABVCgX4FZBB9uHt/tHnz4uH+UnEEBFECBA1VAtlE2Mi+UcHz5AQA/cqD/QZg2CqDAWgXwI5f9Rcl/4kPWYkQBFECBA1YAP7LejxB8OOD/IEwdBVBgrQKzCD7ce/9Bd3T73trBUgAFUAAFDk0B2UbZyNJiCXnPHs040Z4AABLHSURBVATwI4f2P4P5ogAKjFUAP/LMV/T5TXzIWJoohwIocIgK4EfW+xGCD4f4P4M5owAKjFVgFsGHJ09PuxtHd7qHj56MHTflUAAFUGDxCsgmyjbKRvYtmJDvhwH8yOL/QzBBFECBjRXAj9hHrNviQzaGiwoogAIHoQB+ZJ3/uDhP8OEg/jswSRRAgYkKzCL48PjpWffu/YfdGzdvdU9OTidOhWoogAIosBwFZAtlE2UbZSMJMgxrgB9ZDvvMBAVQoI4C+JFhvxH9Kj6kDnO0ggIosCwF8CPj/QjBh2Wxz2xQAAXqKjCL4MP5zf/JWXf3vfvni218AqLuRaY1FECB/VJANlCBB9nEJyfjb3rjQspB7uNH9gt0RosCKLA1BfAjE3wnPmRrPNIwCqDA/imAH9nMjxB82D/GGTEKoMDuFJhP8EFv9p5cfAJCXzOi7xXUDxudnp7tTg16QgEUQIFGCsjWyebJ9skG6hMPBB42u+l3IFva4UcagUy3KIACzRTAj0zwGfmThTyLNOOXjlEABdorgB+Z7kcIPrTnlxGgAArMV4F5BR+env3460VOz39g9ebx3e6168edBskfGsAADCyZAdk62byLH5c+5auW8oLQBscXX1OFH1ny/xfmhj+AgVUG8CPTF43ipwXxIats8f8NTWDgMBjAj0z3I/o/QkIBFEABFCgrIBsZ77d3tf/crjqin+kOFO3QDgZgAAZgAAZgAAZgAAZgAAZgAAZgAAb6GagRfPjIZ77X/eE//KC8crfj3J/67f/tXj56utJrX74Kfuwvb81m/CsDr5Sh66PrRNo/BcTu3770YNLAVVd8k6YrQPBhg7dpcbb9zhZt0AYGYAAGYAAGYAAGYAAGYAAGYAAGYODQGNhV8EEL33kBVQviNRdG+9rry/dy5BKDDznYQvDBV3v/tlcJPuTZrvu/kMvv+jhzu+v+S/0RfCD40OSjL4d2M8J8uQGHARiAARiAARiAARiAARiAARiAgeUxsKTgQynAocXEvnwvNBJ8sBJs56gAwYe2V4XgA8EHgg8wAAMwAAMwAAMwAAMwAAMwAAMwAAMwAAMTGKgZfNAivhZK9ac3rJX0FUjO81Z5Cgj4OJZXvt/O9vn46Qh9ekL5+auV3E9epizlx3FqX38er+vHMurPyeV9rK3HFPPift8YNFenXMbH1mDd+FReyWNxPY9d9R2E8bnYv8fRN2+d97XRVm2oT7errdv1WH3ssu5D29yPx69zbjPOpTRWt5e1UttOcVx5PK4X+1a9OF6Pxe1o62QdVD6OT/sau5PnEfvJZfraUhtqX23EMnEcKhPPad9J+y4by6hN56tsvh6ur63HrzoeSzzvfZ+L/UQdhtrKfaituSSCDxMcC28qLO9NBa4p1xQGYAAGYAAGYAAGYAAGYAAGYAAGYGBTBmoFH7zwGBcYhxZbVU6Ln3GhWHleuIyLlspzub4FY52Pi6leuMz5OlZ7Tl70jHVVRn9OOuc6Lu9z2uY+4jnvq36eU1xg1Tn3UZpj1Nd9uu04PuepfNRfZZQX56XjsfNWuxpfX7tux/rEcurTc/P44jjy+MeM1e1oq/Jxruo7ah3Lahwea0lnlY1j91hcx23FdpSn+XhOKut9nXMbcUyxj6G2PJ5Y3nkeU+zb/WmrlNvOY1OZUn3VU8oa6TjO47zQj//RGOM4PW+XMRs+zm0rP9Z3udZbgg8EH3izAQZgAAZgAAZgAAZgAAZgAAZgAAZgAAZgYAIDtYIPcbFVi4V50VPHedGytBCqcrmtvGhZWozsW7SM+aXFTrWl/ryQ6zK5j9iO9uNc4rlcz8dxgVd9aJ5RkziGuO/6Ja18rjTmPKa8EKy6ytMYlEptKD+2U7o2sY3zhgrXvq9tl8/n+8YqXcakkn6ql8fqfrWNKc65NBZde+vmem5Lx5lX6+bxx/pxv9SW8jQejSOmOJe++aq8+o51te9x6Hwcd2zfGvSdj2W9Xxqn21EZjUXzjSmPPZaP5VruE3yY4Fg2jYJTnjcnYAAGYAAGYAAGYAAGYAAGYAAGYAAGYGB5DNQKPsQFTi0U5kXP0sJjXggt1VPeugXQ0gKu6uV8HWtxM6e4AOoyKpf/dE5J5b2Am/tQfqznOrGc5h3/1Kb00Ty9H9vwvso4WROf0zYmHbs95au/WD/naXyxrbjvOai+2omp1K7KuY7KeqyxnvNiPz5farOU5/LaZt3zON1f1KSUp7aidqV+lRfHHffdvtvQsfTwVu2rvsc3tq2op9rQsa+n9j0GnYspXzP1Z3ZVLtZ1G966T7WhPI85th/3VcZ1nB/z3G7exvHonDV0G623BB8IPvBmAwzAAAzAAAzAAAzAAAzAAAzAAAzAAAzAwAQGlhB80OJlXvTUgmXOVxkv2MYFTZXzwqrKaAF0KMV2Yt2hOjrnhVWNQQusbkf7sc+8YJzb9YK1F2lz/diX66pOnnvMGzPv0rhiG+5L5dSeUx7fuvGX2izluX1pp+vgVLompbF7XNbR9X2ddFzqt5Tnut56DCqrPyW3G/UZ05bqRT3Vltlxf9qqraxFnrfKRK3GXHf3obY9B+fFbWmcMS/ux3pxf6j9WG6X+wQfJjgW3lRY3psKXFOuKQzAAAzAAAzAAAzAAAzAAAzAAAzAwKYM7EPwobTQ6sVHLyD72NtSvvPyYnNcoO0r43a99SKptmOTF521dfKCbFwQ1n48dllv3Y6PPWYfa+vxOa+0yB3z3EbWxvW1jTo5P7bhvHXjW3e+1GYpT/2V2JB2Ku/UV1fns05Zh1LdMQv2qufraE11nOvmY485bs1IzHP7Mc/7cU75muV6eb5uo2+b68dypXHGvDyWWNf7cezOa70l+EDwgTcbYAAGYAAGYAAGYAAGYAAGYAAGYAAGYAAGJjCwy+CDFi5j0rEWJGPScV6AjAuYebG0bzG0L1/tx4V9lVP72jrpfB5XrKNyKp/bcv2+rfuKbWk/zk91PUctTDtp38eqE9uwZi6rbW7T441lcp7aHJq3zqlOTLkNnVM5j1XHno/rrRt/qc2Y5/a0jftqX/3G65nPewzeaqwlLVVPKfbrOtrmesqL7bhfjcXJY4vlxrSlNmI7bttjjO3lc/maleaj+ioXk9vUmOO1VL7P5bY0xlhW7cU8z9/j1nm1EY9j+TielvsEHyY4lk2j4JTnzQkYgAEYgAEYgAEYgAEYgAEYgAEYgAEYWB4Duwo+eOFRi4t5sVF5WoRU8mKptsqP53S+tLga2/MipeqX8t1HbFuLqe4/1ncZbfOiqseR812/tC3VUb9qP6eol87nxeE8ttyG23W+jnMbpbyou+rG+emc6sTU10as53nHekPjL7UZ89yetko65/a8OK48pTwfl/P43JbzfRzbzrqdN/zjhXXX09Z1fF71vFCvPLftvl1O29hObkvHqhPLxDbURzwXx1G6Zi5rjdR/1snte8yuE+cTr4nn4Hqem+rFvHitdC62pzrxvNtovSX4QPCBNxtgAAZgAAZgAAZgAAZgAAZgAAZgAAZgAAYmMFAj+FBzcbC0WNrXvhY1VT6nvvxcjmMUQAEUWKcAwYcJjoU3FZb3pgLXlGsKAzAAAzAAAzAAAzAAAzAAAzAAAzCwKQP7HHzQW9Px7W0vIvbl+zxbFEABFBirAMEHgg+82QADMAADMAADMAADMAADMAADMAADMAADMDCBgX0OPoxdPKQcCqAACkxVgODDBMeyaRSc8rw5AQMwAAMwAAMwAAMwAAMwAAMwAAMwAAPLY2BuwYepC4TUQwEUQIFtKEDwgeADbzbAAAzAAAzAAAzAAAzAAAzAAAzAAAzAAAxMYIDgwzaWK2kTBVBgKQoQfJjgWHhTYXlvKnBNuaYwAAMwAAMwAAMwAAMwAAMwAAMwAAObMkDwYSlLpMwDBVBgGwoQfCD4wJsNMAADMAADMAADMAADMAADMAADMAADMAADExgg+LCN5UraRAEUWIoCBB8mOJZNo+CU580JGIABGIABGIABGIABGIABGIABGIABGFgeAwQflrJEyjxQAAW2oQDBB4IPvNkAAzAAAzAAAzAAAzAAAzAAAzAAAzAAAzAwgQGCD9tYrqRNFECBpShA8GGCY+FNheW9qcA15ZrCAAzAAAzAAAzAAAzAAAzAAAzAAAxsygDBh6UskTIPFECBbShA8IHgA282wAAMwAAMwAAMwAAMwAAMwAAMwAAMwAAMTGCA4MM2litpEwVQYCkKEHyY4Fg2jYJTnjcnYAAGYAAGYAAGYAAGYAAGYAAGYAAGYGB5DBB8WMoSKfNAARTYhgIEHwg+8GYDDMAADMAADMAADMAADMAADMAADMAADMDABAYIPmxjuZI2UQAFlqIAwYcJjoU3FZb3pgLXlGsKAzAAAzAAAzAAAzAAAzAAAzAAAzCwKQMEH5ayRMo8UAAFtqEAwQeCD7zZAAMwAAMwAAMwAAMwAAMwAAMwAAMwAAMwMIGB164fd6enZ9tYs6NNFEABFNhrBWQbZSM3DerWKP9cjUZogzcSYAAGYAAGYAAGYAAGYAAGYAAGYAAGYAAGWjFw8/hu9+DDx3u9QMjgUQAFUGAbCsg2yka2sM8EHyZE01tcKPrkBg4GYAAGYAAGYAAGYAAGYAAGYAAGYAAGygzce/9Bd3T73jbW7WgTBVAABfZaAdlG2cgW/oPgA8GHJuC1gJ0+yzdo6IIuMAADMAADMAADMAADMAADMAAD+8/AaXfj6E738NGTvV4kZPAogAIoUFMB2UTZxidPT5usARN8IPjQBLz9v6nhxpRrCAMwAAMwAAMwAAMwAAMwAAMwAANzYeDx07Pu3fsPuzdu3uqenJzWXLujLRRAARTYSwVkC2UTZRtlI1vYa4IPjYRvcbHps81/MnRHdxiAARiAARiAARiAARiAARiAARjYAQMnZ93d9+6fL7bxCYi9XCtl0CiAApUUkA1U4EE28cnJDuxvzxo7wYceYbgpaAcl2qM9DMAADMAADMAADMAADMAADMAADMDAJAZOLj4Boa8Z0fec64dWT0/PKi3n0QwKoAAKzFcB2TrZPNk+2UB94qFl4EE2nOADwYcmH7mZdAPBteJawQAMwAAMwAAMwAAMwAAMwAAMwAAMrGHg4utFTs9/YPXm8d3utevH3cvXbvKHBjAAA4tmQLZONu/ix6VPm33VUlz3JfiwxmFFsdjnrQsYgAEYgAEYgAEYgAEYgAEYgAEYgAEYgAEYgAEYgAEYWM8AwQeCD7wxAQMwAAMwAAMwAAMwAAMwAAMwAAMwAAMwAAMwAAMwAANVGSD4AFBVgSLitz7ih0ZoBAMwAAMwAAMwAAMwAAMwAAMwAAMwAAMwAAMwsHQGCD4QfCD4AAMwAAMwAAMwAAMwAAMwAAMwAAMwAAMwAAMwAAMwAANVGSD4AFBVgVp6tI75EZGGARiAARiAARiAARiAARiAARiAARiAARiAARiAgfUMEHwg+EDwAQZgAAZgAAZgAAZgAAZgAAZgAAZgAAZgAAZgAAZgAAaqMkDwAaCqAkXEb33ED43QCAZgAAZgAAZgAAZgAAZgAAZgAAZgAAZgAAZgYOkMEHwg+EDwAQZgAAZgAAZgAAZgAAZgAAZgAAZgAAZgAAZgAAZgAAaqMkDwAaCqArX0aB3zIyINAzAAAzAAAzAAAzAAAzAAAzAAAzAAAzAAAzAAA+sZIPhA8IHgAwzAAAzAAAzAAAzAAAzAAAzAAAzAAAzAAAzAAAzAAAxUZYDgA0BVBYqI3/qIHxqhEQzAAAzAAAzAAAzAAAzAAAzAAAzAAAzAAAzAwNIZIPhA8IHgAwzAAAzAAAzAAAzAAAzAAAzAAAzAAAzAAAzAAAzAAAxUZYDgA0BVBWrp0TrmR0QaBmAABmAABmAABmAABmAABmAABmAABmAABmAABtYzQPCB4APBBxiAARiAARiAARiAARiAARiAARiAARiAARiAARiAARioygDBB4CqChQRv/URPzRCIxiAARiAARiAARiAARiAARiAARiAARiAARiAgaUzQPCB4APBBxiAARiAARiAARiAARiAARiAARiAARiAARiAARiAARioygDBB4CqCtTSo3XMj4g0DMAADMAADMAADMAADMAADMAADMAADMAADMAADKxngOADwQeCDzAAAzAAAzAAAzAAAzAAAzAAAzAAAzAAAzAAAzAAAzBQlQGCDwBVFSgifusjfmiERjAAAzAAAzAAAzAAAzAAAzAAAzAAAzAAAzAAA0tngOADwQeCDzAAAzAAAzAAAzAAAzAAAzAAAzAAAzAAAzAAAzAAAzBQlQGCDwBVFailR+uYHxFpGIABGIABGIABGIABGIABGIABGIABGIABGIABGFjPAMEHgg8EH2AABmAABmAABmAABmAABmAABmAABmAABmAABmAABmCgKgP/D/dQX2A4Wlc4AAAAAElFTkSuQmCC;fontSize=8;" vertex="1" parent="1">
                    <mxGeometry x="270" y="170" width="507" height="40.77" as="geometry"/>
                </mxCell>
                <mxCell id="31" style="edgeStyle=none;html=1;entryX=0.5;entryY=0;entryDx=0;entryDy=0;exitX=0.593;exitY=1.136;exitDx=0;exitDy=0;exitPerimeter=0;fontSize=8;" edge="1" parent="1" source="16" target="27">
                    <mxGeometry relative="1" as="geometry"/>
                </mxCell>
                <mxCell id="17" value="Runner - Windows&lt;br style=&quot;font-size: 8px;&quot;&gt;Build App" style="pointerEvents=1;shadow=0;dashed=0;html=1;strokeColor=none;fillColor=#4495D1;labelPosition=center;verticalLabelPosition=bottom;verticalAlign=top;align=center;outlineConnect=0;shape=mxgraph.veeam.server;fontSize=8;" vertex="1" parent="1">
                    <mxGeometry x="260" y="250" width="71.6" height="8.8" as="geometry"/>
                </mxCell>
                <mxCell id="19" value="" style="endArrow=classic;html=1;fontSize=8;" edge="1" parent="1" target="17">
                    <mxGeometry width="50" height="50" relative="1" as="geometry">
                        <mxPoint x="295" y="210" as="sourcePoint"/>
                        <mxPoint x="460" y="290" as="targetPoint"/>
                    </mxGeometry>
                </mxCell>
                <mxCell id="22" style="edgeStyle=none;html=1;fontSize=8;" edge="1" parent="1" source="20">
                    <mxGeometry relative="1" as="geometry">
                        <mxPoint x="426.4121237210952" y="39.710000000000036" as="targetPoint"/>
                    </mxGeometry>
                </mxCell>
                <mxCell id="20" value="Ubuntu&lt;br style=&quot;font-size: 8px;&quot;&gt;Snyk - vulnerability Scan" style="pointerEvents=1;shadow=0;dashed=0;html=1;strokeColor=none;fillColor=#4495D1;labelPosition=right;verticalLabelPosition=middle;verticalAlign=middle;align=left;outlineConnect=0;shape=mxgraph.veeam.server;fontSize=8;" vertex="1" parent="1">
                    <mxGeometry x="390" y="99.99999999999999" width="71.6" height="8.8" as="geometry"/>
                </mxCell>
                <mxCell id="24" value="" style="endArrow=classic;html=1;exitX=0.326;exitY=-0.123;exitDx=0;exitDy=0;exitPerimeter=0;fontSize=8;entryX=0.489;entryY=0.909;entryDx=0;entryDy=0;entryPerimeter=0;" edge="1" parent="1" source="16" target="20">
                    <mxGeometry width="50" height="50" relative="1" as="geometry">
                        <mxPoint x="305" y="220" as="sourcePoint"/>
                        <mxPoint x="435" y="140" as="targetPoint"/>
                    </mxGeometry>
                </mxCell>
                <mxCell id="27" value="" style="shape=image;verticalLabelPosition=bottom;labelBackgroundColor=#ffffff;verticalAlign=top;aspect=fixed;imageAspect=0;image=data:image/png,iVBORw0KGgoAAAANSUhEUgAAAwQAAAGUCAYAAACLAuWIAAAABmJLR0QA/wD/AP+gvaeTAAAACXBIWXMAAC4jAAAuIwF4pT92AAAAB3RJTUUH4QocCiUrCGs+cAAAIABJREFUeNrt3XeYJFW98PHvbF6WJboEG5QsOQsIomNAEbQEQQUtQZCLAbkYAAVFwQTI1cuLKCqoCC2IXgktiCBIoyIKokiOEkvyLhk2zvvHOe329vbErp5O38/z9DMzPV3V1edUVZ/fiSBJkiRJkiRJkiRJkiRJkiRJkiRJkiRJkiRJkiRJkiRJkiRJkiRJkiRJkiRJkiRJkiRJkiRJkiRJkiRJkiRJkiRJkiRJkiRJkiRJkiRJkiRJkiRJkiRJkiRJkiRJkiRJkiRJkiRJkiRJkiRJkiRJkiRJkiRJkiRJkiRJkiRJkiRJkiRJkiRJkiRJkiRJkiRJkiRJkiRJkiRJkiRJkiRJkiRJkiRJkiRJkiRJkiRJkiRJkiRJkiRJkiRJkiRJkiRJkiRJkiRJkiRJkiRJkiRJkiRJkiRJkiRJkiRJkiRJkiRJkiRJkiRJkiRJkiRJkiRJkiRJkiRJkiRJkiRJkiRJkiRJkiRJkiRJkiRJkiRJkiRJkiRJkiRJkiRJkiRJkiRJkiRJkiRJkiRJkiRJkiRJkiRJkiRJkiRJkiRJkiRJkiRJkiRJkiRJkiRJkiRJkiRJkiRJkiRJkiRJkiRJkiRJkiRJkiRJkiRJkiRJkiRJkiRJkiRJkiRJkiRJkiRJkiRJkiRJkiRJkiRJkiRJkiRJkiRJkiRJkiRJkiRJkiRJkiRJkiRJkiRJkiRJkiRJkiRJkiRJkiRJkiRJkiRJkiRJkiRJkiRJkiRJkiRJkiRJkiRJkiRJkiRJkiRJkiRJkiRJkiRJkiRJkiRJkiRJkiRJkiRJkiRJkiRJkiRJkiRJkiRJkiRJkiRJkiRJkiRJktSF+tr1wNIkm1IsFebF3ymWCuaWtKRXAJtW/T0fuGaI108FdgIWxb8nAdcCL7TwM2wDvBa4F7gReGIM+1gTWA8YiH8/Bdw8zDarAJsBC+N98AXgQeBRTytJktonINg2TbK/pkm2bppkfaaItJS9YiG48pgzzOsLNa8fADZv8Wc4tOZ4fjeGfRxes49L67ymD1gXKNVJg9rHw8ABnl6SpF4xoY2PbQGwHXAH8JM0yWbFQMFck4JKAbb6mhnLPlr9GarNH8M+FtX8vbDOa04D7gHeNYL9FYBNPL0kSQYE7WEhoVvD/sDjaZJ9qHLMBgaSRuhjwEdHuc31JpskqVdM6rDjPQs4Ok2yo4ulwgWOLZAE3A9czuKWghtq/n9MnW0eJXQfeib+PQBsAawDrA/8yWSVJBkQtK8NgfPTJCsDe6ZJ9nSxVHDgsdS7zo+PelYBXlnz3KXAbiabJEmdGxBU9ANPAmenSXaAQYGUiw0IMxdtSuhL/wrCgNzbCDMBXUqoXe+j/viDiYTBzpsCG7F4Bp+7gceAfxBmAJo7yPtXTyCwPvBmwixCmwI3AT8kDPqttk78f+V4HgOui7+vUec9jm4gfXYCXgdsCUwnDOT+J/DXqvesd6+aGX9/EbiaxeM9DozbV1o1dgGmEbpG3g7cFZ9/N2EA+NaEVo2/EcZFLPSUlST1ckBQKXx8GPhwmmR7AL8F5hoYSKPWFwvcmw7y/z2rfj+D0C+/tjCaABeN4L1eB/xlkP9NAPYDTiLU7ld7N6H7z24sOZPQXsA3q/6+HHh7/L1e0DKWqUW3Aa6qKtjXcwuwN3BnzfM/iIEWwOyYxlsCvwRmAJ+rCgh+DqwUf784bnsRS4/32h/4DvAmoOzpK0lqxIQu+iwXAtemSfZ2gwFp1AZiQDASBwHn1dw/thhhMMAQwQCEGvKf1gkGqn2PUDtfURuYzM85bT5BqJGfOczrKq0YW9Y8P6/q9+ViAf43MRiAMB1qvdfuBvx6mPv0lYT1JSRJGrNJXfZ5tgJ+mybZb4GDiqWCUxGpl0wkdJ8ZbN2OVYfZ/kZgH+A5Qjefyn76gBVrCp67AisQarwB3lmnUP4koYvMMvG56cCzwxzDSNYcWZXQFejucUjTacBXap5bCDxN6Pa0TEyHiinAFYSuVoPdczeoeW67QV5bHQi8FN9zWsyL6tf8bwxaJEkakwld+rl2BW5Lk+yHaZJNBKcpVU9YkdDP/55BHtcMs/0PCX3UtyCs/Lt+/LkBoTtQ9YrGM1iyf/6KNfs6t2r7yj42Z3FXnuE8CZwQX/8plmwF6BvHe9fuwMo1wcB/ARvHz7UpcFTNNisDO49w/1cw9CJoCwjdg7auSsvaGZDe76kvSTIgqG+5+MX9ZJpkexFqTw0MpME9Qxjg+gChRvoFQg3/c7Hg+kTN6zeu+r22r/7zVQHEi/HvhwgLDQ7lUeC9wKxY0L4c+DFLDyQeL/01f98O/AR4PKZRFgOX2TWv22GY/d5FGEuxC6FlZjB7EKZbviOm42zgCzWvmeypK0kyIBjaCsD/ATekSfbmymxEkkZlEUv2b688V1Hb/fCDwJl1CtTD+Xu8XmvvU30t+tzb1CnI13N5zd/rDLHP82Mw9ZcRBmm1png6SpLyNKmHPusWwJVpkp1BmKnkUcCpStVNXibUpg9WeJ5BmMFnKDOBV8XHOiyu+Z/Pkn3la11J6NpTsTyhq8v+8e9fEAYDX0eoWR9MX5ul6YQRHt/zNX8PDLHPxxn5dKF9ntaSJAOC/B0EvD9NstOKpcLnDAbURZ4HDhni/6sOExBUVuhdZQzvfQlQBNJB/v+++LiZMJZAkiS1iQk9+rlnAkemSTYnTbJdHHgsKwBYhjBOYNYY9z0AfIjQxeY3hK419WYU2gz4ZBem7YCnlyTJgKAzrUDo+3t9mmRr2VqgHrYSoWWg0kVlAaGLz0cIg/M/TFgBeDh/J8zMsyWhn/yBdV7zjhZ/1tGs7jtxhK9b1VNIkmRA0Nm2Au5Lk+ykNMmMCtSLliHMcV9xP/DfhDEJZxAWC3tmFPurzMDzE+DbNf8bz4W06hX+9xzF9n+pU4lQT+1aAs/ldPyL6jznrEKSJAOCJjqcsH7B8ZUn7EakHtU3SNAwmFWBtQb5X203pInj+Dnqrb58KnAiYaKBTaoeewJHAn+tClr+WLPtzoSpQqsdC6xW89yvczr+ei0PteseTPJ0lSQ1wi+SpS0HfD5NsgQ4rFgqXFEJDOxSpC72AqFWf3r8e13gYuB6QgvaO4fZfu9Y0IawZsBf4v1lFrBTzWuvGufPdjqh21PF5FjwP3KIbXaMx3k+YUXiqVX3zMsJazK8QFiEbGbNtk+x9OJhY/Wr+PO+GEitTJgtqtpPPX0lSY2whWBwGwOXpUn2zzTJ1nP9AnW5JwjdhKrtSpii950j2H6rqt/XiAHCHnWCAQi18+Pp84yuuxOElYEhjKU4vs7/ZxFaRGbW+d8eTfgMaxOmgp1R53+f8PSVJBkQNDd9NgfuTpPsOGLzvYGB2sREluzas8wwr+8b4h4wjzAA+MlBtr2XMB6gWnUL40zCOghDeYSwYNncqudq+8NPG+S4l6l5Td8Q+6gdozAbKBBaPJ4YYdq+uur344DDCCs4D+UWYB+Wbh2YXvN3XguLZcB7cIYjSVKD2nbRmzTJtgT+xvj2Nx7Oc8A3iqXCCZ46agNTCQuAVSwaokBfKfzPqipA9hG6tyyoes1ysZC5TXzdv4GfExbTejEGxZXtn6kq3E+NhfY147bbsHhAb1/cx80sPdh2OkvWss8Dnq5zn1qp6l4wEAv5C6sCoWWrXj+X+i0CffF1GxNmOlqppjB9E/DPGPy8zNILqE0n1NTvTei6U9nnbcClMeCZV+d9V6oJnl5i8EHHj7DkeIS94ntsGfOm8vkvjPfH570MJEkGBK1xI/C5YqlweTxWxxdIykNtQLAz+Y1HkCSpLrsMjc2WwG/SJPtzmmTTHF8gqUn6TAJJkgFB+5oIvA54KY4vWAEcXyBJkiQDgl70JeDRNMk+aNchSZIkGRD0pqlA0WSQlCO7DEmSms6FySSpfVQmUbgTKLP02hCSJOXOFoImqx5T4PiC8dffX5psKqiDvIbQKrAh8DHgQZNEkmRA0PmmpUn2+zTJVnM2onEJACo/J/T3l04B/p+pog4yxySQJBkQdKfXAo+kSfYDYBWwtaBZgUC5nNDfXzqA0OXiUOovFCVJkiQDgnFVWVH14BgYHFSZjcjAINdAYKP+/tKtwI+B9eJLHJQpSZI0BAcVtyYIOz1NssOArxVLhfNMkrEHAzEQWBs4FtjPVJEkSTIg6BSbAj9Pk+xo4E3A7MoYA9cyGD4IgP+0CnwS+I4pI0nD6iNUSk0ktFy/DdgImAUM1Hn9E8BthNmu7gcWVT0GTE7JgED52Rx4HPhemmRHF0uF5w0KBlcJBvr7SwcCR7G4a5Akqb6pwAeAXYANCBVSU8ewnznAA4TZr+4H/gBcDTxpEksGBGrcRMIA2EPTJHsPcBGhBkYs0TWoD1gJuArYzJSRpCEtC3wV+FRO+1sxPraMf/93/Hki8HmTW+pcDipuP+cD16VJ9q7KE70+8DgGA8sAPyLURBkMSNLQTgQezjEYGMpzJrfU2WwhaE/bAKU0yS4APlIsFeZUAoNe60rU31+aCuwNFD0tJGlYM4ErgO3G8T2dLk8yIFAT7Qm8LU2y04Bji6XCC90eFFQPGu7vL+0NfBHYwlOhrtWArejtqVUnADcAj3g6SKwM/B141Ti+50JcUVsyIFDTzQAOBz6ZJtmehJqfBd0aGMTuQasD/wfsaPYP6fXAL00GUuBnJoPEP4Hx/mJYaEAudT7HEHSOacClwDVpkr2um4KByuJi/f2lmf39pR8DdxsMjIhT/y0ukEi97uctCAYq96HZJr9kQKDxtR3w5zTJzk2TbNVuCASASf39pX2Bx4ADCK0ikqSRWZ/QxbRVAfljZoFkQKDW2Ae4M02ykypPdNJsRFVTib4b+BtwDjDdbJWkUTsFmNKi9/6XyS8ZEKi1lgcOT5NsfppkOxPWM2jrIKDKav39pfOBC3HQsCSN1drAri18/zvMAsmAQO1hEmHFyL+lSbYxtGdrQdXsQacC99C6Jm5J6hZfbPH7X20WSAYEai9bAremSfZNwmqStDo4qBowPLm/v/TO/v7SAuAQHCcgSY2awuJVg1vlz2aDZECg9nQE8K80yU4AKJYKLQsK4jiBrYHrgV/T5t2aJKmDLA+sk/M+7wPuBM4FrgLuBR4Y4vU3mg1S53Mdgu61AvC5NMn2Bj4MXAssHM/1C/r7S2sARwGfMDskKXcz4r2+UU8TBiafALw0xOsmAusBbwc2AnbAqY+lrmALQfdblzC+oJwm2QbNbC2oHjTc31/6LnCrwYAkNc1WOexjDrAB8OVhggEIU4zeGYOHj+f0/pIMCDRO+gir2t6ZJtmXgdUhv7EFNesJ7NLfX3ogBgLLmfSS1NYBwc7AEyalZECg3nIscHOaZIfn0XWoaj2BrYC/A5cBrzKZJanpZjW4/V2EMQKSDAja+tgcgNocKwMnpUl2V5pk2481EIgK/f2lb8ZgYDNCa4QkqfkaHT9wPzDPZJTUzgHBrcCpZlFTrQ/8KU2y69MkWxlG3o0otgp8PebTESZlS/QZgLX9fUxqps0a3H4OsMhklNS2swwVS4W5wKFpkp1FGMC0g9nVtHNgW+DJNMmOAE4Hnql9UaVrUPx9F+AM7BrUarcBX2liUDAX+CxVa1qMwSPxXGnm+Xuzp4J61ECLt5dkQNB8cYrM69Mke0MMCK7GGtFmOgn4appkBxdLhbOr/xFbBF4BXEGolbJWtvVuJ8wM0kwHNBgQ/Bv4klklte09RJLau1BXGfRaLBXmF0uFPxZLhQnA/wDPm3VNMxU4K02y/jr/ewLYwmBAo2QQL7WnBSaBpLYPCKpV+rYXS4UjgDWBX5p9TSu8LQDmmxSSJEkGBG2jeorMYqnwdLFUeB/wZuA6s1GSJEnq8oCgVhxfcBVhbMHbGX6FRUmSJEndEhBUtRgMFEuFywlz658KvGi2SpIkSV0eEFQHBrG14CXgUMJUmJeatZIkSdLwJnXDh6gZX/AUsFuaZLsCXyXMsS+pN6xMmAlrY+DVwNbAcoSJCAaA1Wpev4gwe1YfcC9wD/AgcAtwB3BjF6bRNGB3YDfgQGBV4PE2Or6dgb2B9wFHAWeOcT99wFoxz9eOn/OV8XzYOJ4PG8VzYBKwUp19zCFMsDARuAl4AXggniO3AQ/H51u1uNfCBref24bn58SYP5vH63YjQkXfajGPJgCvGOI6vht4ljClauVavgV4rAuv5eWBXeP1/Drg9W34OZeJ9+Q1gfWAAmHq8nVjXq9a8/rHgfvidXVFfMxuwnGtEI9nA+A18R6xZnwsC8xiyUrzfwP/Av4B/AG4DHjOgKAzAoPfpkn2O2AfoGg5SepaE+J1/vV4M+9j5K2fE6q+kFaJX6rEwuJALHBdChweCxrN8MtYAB7NzF6TGf10rpOBLxDWrhio2n7ZIQKCTwLfGcOxfRz4/iiPLwV+GAOWyrFtOcp97BkLSP3AOixezXusq3pXr8Hxppr/VZ8jvwa+FgsLjZoVC3UjmRK00e/wbwLHNxBwXQW8Lafr4M3AMTHvFo0yz2qvY4B3VAULA7FAdybwDeDlJl3L3yb0VBjNgm/zgdfGAHM097zjgcOAKTGdXhjmvvdhwsKjA028x1SsBhwE7B8L2qO5BleJj+3jPhYBxxEqeBtVAD4dKxsKVefxSI7rlfHx+nhfXBi/c47tpi/SrlUsFRYWS4WfxRqhk3GJdqmb7AKcHW/MPyPUBk/M6b5WCSomAwlwF/B3wkJteZtY9QU80kelADUSWwI/ItSyfbnq81VsP4LviNEe21YjPLZlgCMJNe1nA9Nrjm3lIbZdB/hYzPubY0HnfOBgQq3fpKrzoRlrYVSfI++J58eDsfCyRoP77RthWjf6uSaMMm+rH5NiYbQR28WA8zngyhgMkHOeTYjnwZox4Hgpvtf+TbqWJ40yHaeO4nzZmrDy+9x43UytSqcZMZgeKh0mjfI63m+Ex7VuDOjPjMHsI7EAv16D12Bf3P4r8fraeJTbrxkrJ86JlR4PA5+Nz09o8LgmxfvpTcD6BgQdII4veC5GhSsDt1qOkjracrEAeHn8EhovWwE/JkxcsFUbpMN2w/x/OvA7Qq31gYSWgHpe06S0Gu675zOEWs0TWVxbV6+gMZjjgdOADwCbtsm5uSZhZe6HgBPo/kX5bhnjdivEQvlfCbWty47zcb85Fl6fH0Vg3SwTRxAQLEdoqbwB+AiDtwy9Oudj+9gw/38joZvlPTGg35/FLTTNuKfcNMJzZbdYifMg8D1gX0LLWzNsFt+r44OCrg8IqlY7rqxfsGmszbnDcpXUMSoFqyMJNT2tLABOJ9RWndriNNlikOdXJqzo/hzw1hHsp9CEY9t6iP8dGr+ovzWC/cxkcW1lXoXR8fI54HpCLWm3X5ejcQTwaBsUxCHUql8J/JbQ4tQqaw1RwD8ZeJrQFW44eZ9r27J0K10/i1scy8ME7c0InjLCmJJ6wcn34/fDJS0ooF8d71cGBB0WJFxQLBU2IrQauCKv1P4G4hf3iYRm8nZwCGFcwbQWvf8ede7nnwCeJDSLTxzhfjZswrEtYslBun2EftLzgVNGEYRMHOJzXNQB5+02hFbptbv0uhzNANZlYyD9zTa6hiveTphU4B0tev/N6jz3UcIg1sNGEXi9tgllxC3jz50JA7evIrQ4rtiitFqO0PpWsSOhRa4c02xWi45rdeCPBgQdKHYlOjl+GZ5seUtqWzOBf9IeNYq11iN0y5nYgvfuY3Ef7ncQaqO/O4b9TG/Cd8EEFtccbkgYdHsdox8EuwKDdxG4qUPO3ykxcNyoC6/Nkc5OtRJwLe3R1W4ovyFMIDDeqlsn3hGDyO+P4bpcK+fjmggcHe+/f2Dp2Z1aZV9CC9zNwDU0NmYnT1sA7zUg6DBVMxL9q1gqfJowetzxBVL7+T1hCsJ29XpaUzM0IRYAfhoLMluPcT/TGLxbTiPHthrwKcL0j7uPcT/LxoBlMA91yDk8ETiPxgfhtpuR1FwvF4PVTTvkM51EGBg+nippc0G8ljce436aUTB+c5vm3Qltelz7derF3LMBQXVgEFsLHonjC/YhDBCR1PrCxll0xloiryN01xlPkwi15I1+AS1PmO2nGXn3vw3uZ9owheiHOuh83owumqKQ0C3swRG87ipa2z9/LL4YA/3xLIs9xtLdAEdrY9Rq7yS0bBoQdGpQAP/pRnResVR4DWGaK0mtsxXwoQ463u8y9DSZzQiY8uiLPYPm9OnO40txMkO3EFzXYef0UdQfENnJQftQfsTYW65aXTb6I+PbFXAV1C2Oo0NPetUEBvH3LxNqNb5vykjjbgqhq1Cn+XkHHvNU8u8ylKehZjHpxG6eR3bJNbqIMN/8YDamOet2jKdL6bypY9f066Pl9jUg6D73FUuFjxPm6X6E0a0+KGnsjiN0Zek0ryMsitVJlmH854EfjdWHukcTFqbrJLu1eQA2GkPN0lei89dh2IXOGftQsR1qtRVpn4HOBgR5qBpfcFexVHgl8EHCokSSmmc6HVrDQuh+8+EOPO5CGx/bUDPTPE7nTR29Nt1RizsAPDXI/z7A+M5P30xnddjxzkTtULbuuPVHJplvwwcFVb+fC5ybJtlphL7NM0whKXevJd8VN18gtPBdAtxIWO1zIqFmeUtgE8JgvjVyuqY/T5iqr5O086DPoVpcMmAe9deCWBCDhcrPuYTF2m4k1NBfyeCVYq+KBffNCPOaTyff9SYOi4/BCtoD8bhH8h3eSC38IsbewjIvXlv1CkP/1YTzYBHwUnzfBVXpU5l+d2LMp7xnctqS0EpwS4dcyx2/Ym4X6GPJdVgMCLpRbDH4eJpk3yYMPN7HVJFy9bWc9jM/Fs5/BTwwyGturirErxmv52/m8GWwC2F9gk7RzrVZQw3Unl1VAPw3Yb7/PxBmivsX8CzwDGGl1+fG+P4rEKalfjfwjZw+00FDBARPE2a4Ga6L6guEaSobCeZOB84cY1AxADxf5/llyXeGngWE2Zn+FAPAJ2JeLqp5zxnxGt4AOJiwcm1evkznzC//atQOAUGh0w7agGCUqloM7i6WCvumSXYKcK4XoZSLGYQVMRuVAW+KBcSReogwB/nfgctobIaRj3VAQLAofuaPAb9tw+ObHQuC34lfsIMVkPcgzAjTrO6cT8fHbcC347nV6GxSyxD6Gc8ZJJD98wj30+hnfhD4S87ptVdOZYtFhEk9DhnBa5+Pj8eAvwHnxPvIBeQz89fWhK44z7XptTyfMJ7mo4QVe9vFizFwnRsD9tuBHQhrU6xCaxZ0rBxX5fE0odVw+xj8r5zT+dtpU+06hqCRwCC2FlxLWInz3aaK1LA9ctjHo4R+53ePcfsrgfc1eAwbt/DLbiQuiF/M67RRMFAp8N8Xz4NCDAZg6Nryyxi/sV1zCauRPpXDvtbr0mv4kznt560jDAYG80fCOIbrcziWtWjfSQ5+SWiR2aRNgoF5hOlmdyd0/1yf0HKzPWF81YaE7njbxSBhvMwBvgf0A9sQWpJeHa/n/eNxrQskLO6214hpnXbhGhA0GBRELxdLhRKOKZAatWMO+ziK0K2gEecz8lrael5B6HveTgYI3WheD7wnFpQWtdHxPQF8PAYpFwEvt+k5mgGn5bCfdbr0Gs5j3YH3EBY0a9QzsSDa6Lk0AXhDG6XxQsKYhg1i5cV1jGzMSTML22VCV8mphC5xvyG0qj0zSGD9D+AdNHdSgEfjvXxTQp/+Q4CrgTuo3zr3AmGq2bfS+AxZHTcrpQFBjoFBsVR4MU0yE0Qa+/2o0VrTxwl9ovNwXgPbTif/1X8bcTuwUyxAXNNm+f4ccCChtq5T1n05IYd9LNeF13AeheargQtzDoT7c9jPW9okjW8ljI9opBU0LzcTatQ3JXTRvGKU+XJTvGfn7VcsbgXYi9GvV/J74J+9+AWsJgQHprPnuEZtMmHwZiPyXGG83MC2M2iP5eufIiyEtTFwLe01Z//zwM8IXTF+Qvu2CNTzAmHAciPW7cJreMMc9vE98q9dvYEwNqiTA4KHCbM3bRqD+gUtPPf/QZiBa3Pg1zTW9ecPOR3X00CR0BKwd8zvRsZ8XGZhSXmbB5xtMrTEHcAPTIaOCghWb3AfeQ7kvanB7Vu9oNHnCS0uJ7VhXl8Y0yelcxd8vK7B7ad04TW8WQ77+EUTjmsBjQ+ebuXEIUfEtD2jxfn7A0Kf+63JbxrWGxvcfhHw1Xg/+RD1uwKNxVwDAuWqWCosKpYKh8SL6AZTZFzMBo4ul5ONyuXklv7+kinSGfpobAXX52m81jZPrRpTdD1hEN+JhFqzdnIfsGd8PNDh5+ujDW4/0IXXcKPjZprZnS2Pmujx7uZ1HbAq8D9tcC1fTJiR7N6c9zuvwe1fAL5EGNsjA4L2Fmcjuokwq8cu1J+7Wfk4EdioXE6OrzxRLiemSmeY1OAX7jPkX6vTSCvBFuOcfgsIg/R2IHQvaDefICzydGGXnK99XrJLmEgYTN+IO5ocKDdq5XFKyxcIY352oDl97Mdisqd4938Bq8mqxhUsKJYKVwAz0yT7IbAvYUEVNe5aYP9yObnbpOjZAtZC8p8156UGth2vQcULCDNpvL8N83SAMC/8HozvFINqjUYrGa9s4rHlUVnQ7KkkXyKsqP5eTyV12sWrUQYGlVmIiqXCwYQ+iWeZMg15njCN4hvK5eRuuwepB13dpsFApYAz3vONq3O1eyXlRk3e/xkGA/Li61JpkvUBM4ulwrOVoKDKnGKpsH+aZOcA3yIsLKKReRr4brmcfLH6SbsH9bx5Oe+vE/p5v2y2S+Oi2d3EXjSJZUDQvaYAN6RJ9tViqXBWHE9ADA4G4s/L0iT7PfB2oIR9U4fzHeDL5XIyB6C/v2QgIAj9l39KfgvdzCessilJkgGBGq5RmAX8NE2yg4DDCHP4Uh0cAPOLpcLFwIQ0yX5AGF8w0+RbwrXAMeVycmW9ZUNgAAAPC0lEQVR11yCDAUXLYHO7JEmj5hiC8bUz8Nc0yS6BJbsP1fz+UUJfxUtNMiBMJflGYOdKMGAQIEmSlA9bCMbfZGC3NMkWEVoLziyWCs/VtBZQLBWy+Lp3A8cSpuvrNc8QuoB8qlxOBiqtAgYDkkZhZcK6DMsTupXlMX3iPFq7UJUkGRB0iT7gFOBLaZLtXSwVrq59QQwSLootCu8Bzuuh9PkFcEi5nDxZecJAQNIIrQR8AdgbWJEwlmui33mSVJ9dhlrvFUA5TbJfp0m2bfU/atYv+AWhhuv0Lk+Pa4G3l8vJ+6uDAUkagT0Jq7s+BXwGeBVhLNZUgwFJMiDoBO8ErkuT7Lw0ySYC1WsWVFoLngUOJjSBX9uFaZAQ1hO43PUEJI3CLOBu4FfAa00OSTIg6GR9wPuAJ9Mk+zihiZs64wtmF0uFHYH9gZu64HN/G5hcLie/Jqy6avcgSSO1FXAvsB5O2SxJBgRdZAXge8BzaZLtWLPCcXVgcFaxVNgCOKpDP+efCFNFfrZcThY4e5CkUdo83kecolmSDAi61nTgmjTJfgVsWnmyEhxUfi+WCicAqwI/pjNWVr0ReFe5nOxcLicvVYIAgwFJo/SzWKkgSTIg6HrvAf6ZJtmpaZL11a5fEIOCx4GPEAbR3dumn2MhsF+5nGxVLicXQ1hlWJLG4DSqKkokSQYEvZJXhwD/TpPso5Unq8cXFEsFiqXCw8VSYT1gP+DONjr+bwFrlMvJ2a4yLKlBq8V7nCTJgKBnvwi/nybZo2mSvboSDFR3I4rBwdnFUmFD4Gu0thvRDcCscjk5HHjUIEBSDt6CXYUkKTfOy9y5VgXuj+MLPlMsFR6sfUFsPTgmTbIzgWMIsxKNl5uAr5XLyS8hdA0yEFCTPUNY7O/lNjiWPrpjBrB2ZeuAJBkQqMpewF5pkh0PfKlYKiyo/KNqrMG9xVLhw2mSHQNcDazd5GP6dLmcnFwdCBgMaJwCgm/Fn+pub8txX2NtQXWKU0kGBGo7RwHvS5PshGKpcAYsHl9QNfD4IWCdNMkOAr5K6H6Up+8A3yyXk4crTxgISMrZDjnt5ybgAuAOYO4ot50HHAm8weyQZECgdrMucHqaZEcRatD+Raz9qpmZ6AzgjDTJ/hf4VIPvORDfZ+dyOXnEWYMkNdk2OdyzPgOc3OB+9jUres4ik0DdykHF3Wkd4B7gvDTJCrD02gUxMPg0sCFhLu+xeBRIy+VkvUowYIuAWmjAJOgJ2za4/e9yCAa0tD4a70a1QpsX5v9mNsuAQJ3ovcDDaZIdVn2jrm4tAO4slgopsDPw+Aj3+zJwfLmcrF4uJ+dUnjQYUIsL9CsC00zGrveaBrc/1CRsWoG70QH9WzTx+F6Zwz4mms0yIFAnOxm4K02yD8GSrQVV4wv+VCwVVgUOBGYDkwfZ14+Bjcvl5Gi7BylnC2hsQPAUv7B7QqGBbecCd5mETQsI5jS4j12aeHyb57CP+81mGRCo060HnJUm2fXACmmS9VWCg+q1DIqlwk9iYHBLnX3sVC4nHwHuA1sE1BSNtBJMA2aahJ4jQ3jW5Guquxvc/lXAsk06tt3NHsmAQIttCzwFnJkm2cxKCwEsNfD4yeqN4viAPztOQE00n5F3WxvMB0xGqWXuzGEfn27CcU0Ctm9wH38we2VAoG7M9/2AZ9Mk2weYDkuvdlytEgQYDKjJAcFDDe7j8yaj1DI357CP/YEZOR/Xh4A1GtyHCw3KgEBd7Vzg+jTJkprBxtJ4W0iYuaoRU4DPmZRdrZGZbGbleBzOatWcgGBd4Ec5HtNOhLFvjTrL7JUBgbrdJsBFaZJdmybZK00OtVA5h30cDWwwjse8DKH28UAar4XU8BrtVrZjDscwjXxmrelG5+Swj/fH/TQ6a9iWwEU5HM+zwMNmrQwI1Ct2AO5Ik+ycNMlmmBxqgcty2MdyhPnCD2nicW5ImL7ykvhe9xJqNd9iFjbdvQ1u/8MGtp0J/IAwscKbzYq6vpvTfvYF/g4cMIZtVwWKwPXAyjkcy/3Ak2atDAjUS2YC76Px1UClsXgIeDCn8/jU+EW+B2H2kuWAqSPYdkp83UqEKS7XJdQqHwNcRegqcjtwCrAbsFHcBmBXs7Dtg8ZNgOMYWT/1KbFw+VrgAkJN8cHAambDoG4CHslpXxsRuvu8HK+3XeP1uGadx+bAQcCthK6HHyQMJs7DpYQxTlLXmmQSqI4BQn9uqRW+AJyd075eHQtyL8dCwouEWbb6CHOm3xMLHdVTHa4Q/79iDCxGM5XptoSKlkVmY9PcnsM+vkSogb4EuBa4Md7zpgBbAWsTKkXWB1Ynn1rmXvE8YUae9+e4z6mEFrnKonIv1XnN9CZ+puPMVhkQSNL4ujAW2vMshE0D1hqHY59JaFmwe0Hz/CWn/awPfCo+lK+jcg4IxrPwX+sbgwQgUlexy5CkdvM8cEWHHnslIFBzXWIStLX7gNO64HM8Q35jIiQDAkkapUM79LiXIXRTUnOdaxK0tT7gcDq/pex04N9mpwwIJKk1niAMbu9Eu5l9TXcNYTyI2tNAzJ/DO/gz/B44wqyUAYEktdb5hNk9Os0bzLqmux+42GRoez8FTu7A434UeC+NLYInGRBIUg4WArsDN3TYcW9t1o2L95sEHeEIoNRBx/syYUGz2bgatQwIJKltbEdYYKiTbGu2jYuDTYK2twB4N6HFr909Qljl/DGzTQYEktQ+Bghz+u8I/KyDjnt3s25cnA5c3cL3/yJwi9kwInsDH2nj4/s9YdGzh8wqGRBIUntaCKSEQYrtXnv3HE49Op76WxAU/A7YHvg6cI5ZMOLg/seEhQCvbaPjegr4CvAWQnchyYBAktq4MAHwrVigOKUNj/E2Qg3oWsBnzbJx9bZxKphfDKwB7ApcF5+7yuQflTuANwKvp/XTkh5LaBX4cs19RjIgkKQqU1u8fT1zgMMIKxmfBNzYgnSZA/yDMB/+fwFrApsQakBnE/pNj9SUBo9lShM/Z6Or2U8bp/yYB3wQ2DcGZnm6mbA41frAu4CM0I2t4n7CYnqjNbkNrs/JLbqvzCdMHTsLeCdh0PHj4/C+C2Mg9w3CIoLHERYfy8vkNs6PiW16n2nXe8zkNk2vtr3ZS+puBwIzGtj+aZpX6zYbODLeeCcD+wD70ZxpP+cSpkC9HvglYfDhvPho1FeAH40xnfrisTTLhcADsSA1FgvG+Xz9OXBBPAdOJQwQHYvbYnB3diwwzh3itU8Q+sdPH+V73JPD5/0YsNwYt+0Dbm2De8wlwG9i+m0KfAg4oMH7Tq3fEqZAvTjm5fwmfZbTgMsb2P6uJqbz5cCeDWzfrK6aFxBWtm63e8xZwF8b2P6+Tvuyd47dJkuTbBphTuPlO+iwFwD9xVLhGnNQHWptYCtCzf1GhNqxVzJ0LdnjsYD/cAxk7oq/397EAoSaa1VC3/Bt4rmwfE3gtYiwEu1ThJr/PxJaftR6MwgzjK0br+fVgGWBFQYJnit5+SLwL0LLzU3xd0nDsIVAUje6j6VraIbrIrnIZOs6jxHGFpxDqACbUKcwab63pxcI4zOqx2gMlofmpWRAIEkjYmGhtw0w9m4JMg+lruagYkmSJMmAQJIkSZIBgSRJkiQDAkmSJEkGBJIkSZIMCCRJkiQZEEiSJEkyIJAkSZJkQKDRGTAJJEmSZEDQm+YBRwIvmxSSJEkyIOg9i4qlwunFUmE6cFEMECRJkiQDgl5QLBWqf98D2B641JSRJEmSAUFvBgg3FkuF3YC3Ak+ZIpIkSTIg6DFpklEsFa4E1gE+ASw0VSRJkmRA0COquhE9WywVTgOWA34HLDB1JEmSZEDQQ4FBbC14sVgqvA3YGvizKSNJkiQDgh4KCqrcUiwVdgIOAJ4xdSRJkmRA0FvBwUD8eSawNvB5U0WSJEkGBL1pTrFUOBF4BY4vkCRJkgFBb6kaX/BUHF/weuAOU0aSJEl56jMJOkuaZIcAxwCrNvFtFgD9xVLhGlNckiSpu9lC0FnBAMVS4bvAJsAXTRFJkiQZEPSQqhmJniqWCl8HVgeuNWUkSZJkQNBjgUFsLXgU2AnYHHjYlJEkSZIBQQ8FBdFAsVS4uVgqrAkcBzxh6kiSJMmAoPcCA4qlwrHAOsAppowkSZIMCHrT88VS4TBgCxxfIEmSJAOC3lI1vuAm4I3AzsAcU0aSJEn1uA5Bj0iT7KvAJ4CVRvBy1yGQJEnqEbYQdH8gAECxVDiGML7gJ6aKJEmSKmwh6M0goR/4GmHK0npsIZAkSeoRthD0XjBAsVQoA28AtgNeNlUkSZIMCNQjqqYpXVQsFa4HlgG+Bbxo6kiSJBkQqIcCg9haMFAsFQ4HVgZ+Y8pIkiQZEKiHggL4z8Djl4ulwu7ALsAfPDckSZKkHpUm2YQ0yRxwLkmSJEmSJEmSJEmSJEmSJEmSJEmSJEmSJEmSJEmSJEmSJEmSJEmSJEmSJEmSJEmSJEmSJEmSJEmSJEmSJEmSJEmSJEmSJEmSJEmSJEmSJEmSJEmSJEmSJEmSJEmSJEmSJEmSJEmSJEmSJEmSJEmSJEmSJEmSJEmSJEmSJEmSJEmSJEmSJEmSJEmSJEmSJEmSJEmSJEmSJEmSJEmSJEmSJEmSJEmSJEmSJEmSJEmSJEmSJEmSJEmSJEmSJEmSJEmSJEmSJEmSJEmSJEmSJEmSJEmSJEmSJEmSJEmSJEmSJEmSJEmSJEmSJEmSJEmSJEmSJEmSJEmSJEmSJEmSJEmSJEmSJEmSJEmSJEmSJEmSJEmSJEmSJEmSJEmSJEmSJEmSJEmSJEmSJEmSJEmSJEmSJEmSJEmSJEmSJEmSJEmSJEmSJEmSJEmSJEmSJEmSJEmSJEmSJEmSJEmSJEmSJEmSJEmSJEmSJEmSJEmSJEmSJEmSJEmSJEmSJEmSJEmSJEmSJEmSJEmSJEmSJEmSJEmSJEmSJEmSJEmSJEmSJEmSJEmSJEmSJEmSJEmSJEmSJEmSJEmSJEmSJEmSJEmSJEmSJEmSJEmSJEmSJEmSJEmSJEmSJEmSJEmSJEmSJEmSJEmSJEmSJEmSJEmSJEmSJEmSJEmSJEmSJEmSJEmSJEmSJEmSJEmSJEmSJEmSJEmSJEmSJEmSJEmSJEmSJEmSJElqe/8f+6Y56bFIFhwAAAAASUVORK5CYII=;fontSize=8;" vertex="1" parent="1">
                    <mxGeometry x="540" y="258.8" width="62" height="32.44" as="geometry"/>
                </mxCell>
                <mxCell id="29" style="edgeStyle=none;html=1;entryX=0.096;entryY=0.041;entryDx=0;entryDy=0;entryPerimeter=0;fontSize=8;" edge="1" parent="1" source="28" target="16">
                    <mxGeometry relative="1" as="geometry"/>
                </mxCell>
                <mxCell id="28" value="Github Repo&lt;br style=&quot;font-size: 8px;&quot;&gt;Secrets" style="points=[[0,0.5,0],[0.24,0,0],[0.5,0.28,0],[0.995,0.475,0],[0.5,0.72,0],[0.24,1,0]];verticalLabelPosition=top;html=1;verticalAlign=bottom;aspect=fixed;align=center;pointerEvents=1;shape=mxgraph.cisco19.key;fillColor=#005073;strokeColor=none;fontSize=8;labelPosition=center;" vertex="1" parent="1">
                    <mxGeometry x="290" y="86.3" width="50" height="22.5" as="geometry"/>
                </mxCell>
                <mxCell id="32" value="Azure&lt;br style=&quot;font-size: 8px;&quot;&gt;Creds" style="pointerEvents=1;shadow=0;dashed=0;html=1;strokeColor=none;labelPosition=center;verticalLabelPosition=bottom;verticalAlign=top;outlineConnect=0;align=center;shape=mxgraph.office.security.key_permissions;fillColor=#7FBA42;fontSize=8;" vertex="1" parent="1">
                    <mxGeometry x="554" y="217" width="6.33" height="13.42" as="geometry"/>
                </mxCell>
                <mxCell id="33" value="" style="whiteSpace=wrap;html=1;fontSize=8;dashed=1;fillColor=none;strokeColor=#007FFF;" vertex="1" parent="1">
                    <mxGeometry x="480" y="360" width="330" height="240" as="geometry"/>
                </mxCell>
                <mxCell id="34" value="rg-dev-weatherman" style="aspect=fixed;html=1;points=[];align=left;image;fontSize=8;image=img/lib/mscae/ResourceGroup.svg;verticalAlign=middle;labelPosition=right;verticalLabelPosition=middle;" vertex="1" parent="1">
                    <mxGeometry x="484" y="360" width="30" height="24" as="geometry"/>
                </mxCell>
                <mxCell id="41" value="Get Secrets&lt;br style=&quot;font-size: 8px;&quot;&gt;Appsettings" style="edgeStyle=none;html=1;fontSize=8;" edge="1" parent="1" source="37" target="40">
                    <mxGeometry relative="1" as="geometry"/>
                </mxCell>
                <mxCell id="37" value="weatherman app" style="aspect=fixed;html=1;points=[];align=center;image;fontSize=8;image=img/lib/azure2/app_services/App_Services.svg;dashed=1;strokeColor=#007FFF;fillColor=none;" vertex="1" parent="1">
                    <mxGeometry x="610" y="429.94" width="40" height="40" as="geometry"/>
                </mxCell>
                <mxCell id="39" value="" style="aspect=fixed;html=1;points=[];align=center;image;fontSize=8;image=img/lib/mscae/Managed_Identities.svg;dashed=1;strokeColor=#007FFF;fillColor=none;" vertex="1" parent="1">
                    <mxGeometry x="642" y="439.47" width="8" height="10.53" as="geometry"/>
                </mxCell>
                <mxCell id="40" value="" style="aspect=fixed;html=1;points=[];align=center;image;fontSize=8;image=img/lib/azure2/security/Key_Vaults.svg;dashed=1;strokeColor=#007FFF;fillColor=none;" vertex="1" parent="1">
                    <mxGeometry x="752" y="430.94" width="38" height="38" as="geometry"/>
                </mxCell>
                <mxCell id="43" value="AppInsights" style="aspect=fixed;html=1;points=[];align=center;image;fontSize=8;image=img/lib/azure2/devops/Application_Insights.svg;dashed=1;strokeColor=#007FFF;fillColor=none;" vertex="1" parent="1">
                    <mxGeometry x="704" y="490" width="24" height="34.36" as="geometry"/>
                </mxCell>
                <mxCell id="44" value="AppService Plan&lt;br style=&quot;font-size: 8px;&quot;&gt;Windows" style="aspect=fixed;html=1;points=[];align=center;image;fontSize=8;image=img/lib/azure2/app_services/App_Service_Plans.svg;dashed=1;strokeColor=#007FFF;fillColor=none;" vertex="1" parent="1">
                    <mxGeometry x="514" y="429.94" width="40" height="40" as="geometry"/>
                </mxCell>
                <mxCell id="45" value="Provisioned by terraform" style="text;html=1;strokeColor=none;fillColor=none;align=center;verticalAlign=middle;whiteSpace=wrap;dashed=1;fontSize=8;" vertex="1" parent="1">
                    <mxGeometry x="606" y="565" width="98" height="20" as="geometry"/>
                </mxCell>
                <mxCell id="46" value="" style="whiteSpace=wrap;html=1;fontSize=8;dashed=1;fillColor=none;strokeColor=#007FFF;" vertex="1" parent="1">
                    <mxGeometry x="130.8" y="360" width="330" height="240" as="geometry"/>
                </mxCell>
                <mxCell id="47" value="rg-dev-weatherman-infrastate" style="aspect=fixed;html=1;points=[];align=left;image;fontSize=8;image=img/lib/mscae/ResourceGroup.svg;labelPosition=right;verticalLabelPosition=middle;verticalAlign=middle;" vertex="1" parent="1">
                    <mxGeometry x="130.8" y="360" width="30" height="24" as="geometry"/>
                </mxCell>
                <mxCell id="50" style="edgeStyle=none;html=1;entryX=0;entryY=0.5;entryDx=0;entryDy=0;fontSize=8;" edge="1" parent="1" source="49" target="27">
                    <mxGeometry relative="1" as="geometry"/>
                </mxCell>
                <mxCell id="51" value="manage state" style="edgeLabel;html=1;align=center;verticalAlign=middle;resizable=0;points=[];fontSize=8;" vertex="1" connectable="0" parent="50">
                    <mxGeometry x="0.2659" y="-4" relative="1" as="geometry">
                        <mxPoint as="offset"/>
                    </mxGeometry>
                </mxCell>
                <mxCell id="49" value="terraformbackendstorage" style="aspect=fixed;html=1;points=[];align=center;image;fontSize=8;image=img/lib/azure2/storage/Storage_Accounts.svg;dashed=1;strokeColor=#007FFF;fillColor=none;" vertex="1" parent="1">
                    <mxGeometry x="290" y="429.94" width="37" height="29.6" as="geometry"/>
                </mxCell>
                <mxCell id="52" value="Provisioned manually as prerequisites" style="text;html=1;strokeColor=none;fillColor=none;align=center;verticalAlign=middle;whiteSpace=wrap;dashed=1;fontSize=8;" vertex="1" parent="1">
                    <mxGeometry x="242" y="565" width="98" height="20" as="geometry"/>
                </mxCell>
                <mxCell id="53" value="Creds for provisioning&amp;nbsp;&lt;br style=&quot;font-size: 8px;&quot;&gt;and Deployment" style="aspect=fixed;html=1;points=[];align=center;image;fontSize=8;image=img/lib/azure2/identity/App_Registrations.svg;dashed=1;strokeColor=#007FFF;fillColor=none;" vertex="1" parent="1">
                    <mxGeometry x="170" y="427.57" width="33.8" height="34.34" as="geometry"/>
                </mxCell>
                <mxCell id="55" value="" style="shape=image;verticalLabelPosition=bottom;labelBackgroundColor=#ffffff;verticalAlign=top;aspect=fixed;imageAspect=0;image=data:image/png,iVBORw0KGgoAAAANSUhEUgAAAloAAAFWCAYAAACxcTMMAAAr3ElEQVR42u3d+3dVZZ7ncX/pUn/Lj70q/MCfcOSSBJAhliAlTXGNBEIg4S4XIQRBJBGyHC62CAQpEUUhWEojs0airBpKGQw9VW15KSTT5Zqi29FgldKlNVaibTuupc6e8905J56cnP3sZ+/97Ms55/1a61lLIQn7nET3h+/z3d/nppsAAAAAAAAAAAAAAAAAAAAAAAAAAAAAAAAAAAAAAAAAAAAAAAAAAAAAAAAAAAAAAAAAAAAAAAAAAAAAAAAAAAAAAAAAAAAAAAAAAAAAAAAAAAAAAAAAAAAAAAAAAAAAAAAAAAAAAAAAAAAAAAAAAAAAAAAAAAAAAAAAAAAAAAAAAAAAAAAAAAAAAAAAAAAAAAAAAAAAAAAAAAAAAAAAAAAAAAAAAAAAAAAAAAAAAAAAAAAAAAAAAAAAAAAAAAAAAAAAAAAAAAAAAAAAAAAAAAAAAAAAAAAAAAAAAAAAAAAAAAAAAAAAAACA2FmW1VxM15peFXzXAABAMQSXlvTqLqLr7ZDFdw4AACQ9tFSkV396XS6ia76cuebRfAcBAECSQ0unlVFE19yXueQuvoMAACCpgWW0NVxFkVx3rlq+kwAAIImBpafYQkv6GlN519zDdxIAACQtsNRaI7UU6XU38x0FAABJCix9BQJLRxFcd0eB6+7jOwoAAJISVpqtwi4XwbV3OVx7B99ZAAAQd1DJjnMo5GoRXP9lh2vvZ4gpAACIO6h0WApFcP39isvv5DsMAADiCimjXYKKSCX8NbgZzXcaAADEEVK6NIJKbYKvv1bj+s/xnQYAAFGHlPz5U9aXX35l9bz+ZtE0lec38b/zzu+tTz75tKjCIgAAKM2glT+c1Nr/6LPWsSfPFE2fU35/2QvPn7d2PfR4oaDFEFMAABBZQBmx5SaVoLG3zbNaW/YVzYiH9LV1516ohER5DVLZYogpAACIK6CMGE66ZfMjdkhZtaJ9xJiEBL+OYaMd5NrlNaxe+ZDFEFMAABBHOBkxnFQqQBJQsqtYRjzkX+ei+tah1+BQ1WrhJwAAAIQZTkZUs6QClBu0pCk+6c3kmdEUw+S+hpkz1jDEFAAARBpORgwnfeXl14cFFIdqUHMCX0ttoR6z3CWvjaN5AABAFMGk4FE7UvnRCCgdCXw9Lartz2xVq0B1jqoWAAAwHkxGVLOyT+nlrwIjHrqT/npktIPmaxFd/EQAAABToWTEUTtS6ZkyubFgOCmGEQ/5Txw6hUZ5jQWqWhzNAwAAjIWSLt1qlix5ei/pTx7mN/VnRztQ1QIAAFEGktFOw0lVK+kVIJ1eM42qVoqfEAAAECSQjKhmyTE1bkGrwJmBtQl6TSnVaAcPVS2O5gEAAL4Dia9qlsOIh5YEva45uRd27dqHrq9HUdWq5ScFAAD4CSTn/FSzZMlTfEkd8ZD/xGGh0Q5UtQAAQJhhZMTB0TqVH0UouZyg19al29hPVQsAAIQRRnrcjtpRrQKHS/cl6LUNG+2w/9FngwRIqloAAMBTEKl1OzjabSV5xEP+TDDVaAeqWgAAwHQQCVTNUox4SCXgtVV4Ge1AVQsAAJgMIoGrWUke8VDo9Xl9XVLVclDLTxAAAFAFESPVLIcRDx0JeH3Nfhv8XQ7OpqoFAACUIcRzNWvejGYvIx66EvAatUc71P9do+PvyXYjVS0AAOAlhHR7qWZNv2Ox9dITjzn+vjzNl7QRD/mvUTXa4WDrfcqwRVULAADoBhDPU+Cf3vOwdeWl415GPPQn4HVe1R3tcLKj1Tq5q9XTk5VUtQAAQKEA4ulMw8kTFtgh69qFLk/bawl4nZbuaIeLR9qs3zy905o1tcFLHxpVLQAAMCx8eK5m7bn/QTtkyWqct8rLiIfaJL1OeYLQ6dolZMmSLUSnj5GtVapaAABAFUA6/VazZK1pWOf4sfJUX57mGF+n9mgH6c3KBi1Z0ybXexljkYjGfwAAEH/IqsiflO6lmiVL/r0YRjyk/+wW3ScOl81tGha0VFUtCaUORvMTBgBAeQetlvx0oHoSL7+aJUua4j1MUe+O8bUOq9z1vP6m43W3rbp3WNBSVbUUx/J08RMGAEB5B62+3GQggUHVt9S2/v5hIUuWxxEPV2N8rZe9jHbID1qqqlaBmWFWplJYwU8ZAADlGbLm5CcDmQ2l2jb89emjI4KWxxEPVoyvt0+3D01GO+QHrdeOtFm3V9d5HWDawk8aUDpuGZWq5V0AoBs8ur0csNyyYtOIkCVLwpfHCery9N8Uh9UkGcjn2uT0dTOvV3u0Q6GtQ1ny606fI1uRBfTxkwaUiIpUxS2VKf6bBqAVskaMOlD1LMmSLcJCQUu1degw4iERVFukaxcuLxi0Xn5su+PntLbsY9QDUMJurUx13joqZfFOANAJWh1ejtuRWVmFQpbbU4cOIx4SQXXNMqS0UNCSJSGMUQ9AeZEtQwlZBC0AukGrz+txO05BSzVHS7GlFiu3w7JzB5bmrzN7t3pp/s+iKR4o7mrWVYIWAJ2AJXOzVuSnANWZf3J4tFPIkiW/rwosBUY8xM5tm1TWi+lA5RS2nA6bVjTF7yNsAUVbzerIhiyCFoD8YDUl0yh+Lr+KpduvlD+gNHe9e+64a2DJHej5zTffWF9//fWw9fnnn2uvP/3pT9rriy++GLa++uorrdEOQ697wzrHoKUa9eBSwevLfC92ZZv0ASQ4ZP1tanRuyCJoAVSrZqfXISna6FZ33EY6SJhyClrPH9jnGlgaG7ZY77//vpH1xhtvGFlr17S7XrdTQ3x2OY16UDTFO7ma+Z7NpuoFJK6a1UPQAqhYHcrcrH2RYOB1pINuI7w9TX5SQ+KCVv09G12vWybBq4JW61Lnw7QdJsV7DV5UvIAY3VyZaskPWQQtoDyqVk2Z7af+oL1Kbk3wTiMdsmvejGbXwCIraUFL55plvXJgu2PQUo16kCqhIf2Z73UT1S4gwkrW4JZhP0ELKK+Q1Wzizv3tt9/a/UrS83T0ied9N8Hr9GdlV3f3rxITtC5d6tG+7kJH8eg0xTcs3Gxdu3ZtqFfsu+++MxW8mvkvAQhfOlCdKxSyCFpAaQetDj93Zmk47+/vt27cuGH19fUNCy7z5qz31QSv25+VXf9wujsxQevUqRe1r3vZ3CZl0FI1xZ8/f2HYn9vb22u/hs8++8x+KMCnDv5LAML1ox+n5jiFLIIWQNCyb+JSrfr4449dQsvbns81zF3Sv6UbWPbuOZqYoHXooH4lThreVUFLzj90+lz5c1TXceXKFT/Bi6AFhKkiVeG0ZUjQAso0aH3//ffWl19+aVesPvjgA+3Q8sxx5xEH0nulClmyJk9YoB1YNm/anZig1bZjv/Z1yzr6YIsybEnVq9DnNS/d6um6pOIlFcfcMRQELSBat1SmulQhi6AFlFHQki3Bjz76yHdoWbPKecRBZ/tDxrYNTY54MBG0JAB5uXZ5utDv9qHfa3zrrbfs10vQAiIMWTnH7BC0AIKWbA/+vyChRcYuOAWEV08cVgattvX3eworpkY8RDXawdT24bEnTwW6VoIWEJGKVMUtlak+ghZA0DIStC5e/EffTxvqHLtTaPX2/nMigpbX69bZPpRDqAtWwzbvJmgBxVHN6tAJWQQtgKAVuD/LbUip121Dk08eRjnawcuU+LZV9xb8PKmeEbSAZPubylRKN2QRtACCltaSpwD9jnVY07DOV1hZsvj+2IPWsqZtjtc3fmy98vovHmlzDFpS8Sr0OZMmLCRoAQl3a2XqKkELgNGg1bbjgGOgkIqVU8iSkQ+qMDL9rvXK3z/ceTK2oOU2P6tqfEM6bN3j65Dpkx2t2vO0CFpAcnjZMiRoAQQt7SVPAToFA2l093O24cSaxdb8+TvSgaVe2RSv06slPWSnT3db+/Y+ObTa2w5aa+99yHqo/cDQOnbsOevs2W6tLcNpd6qOC5pvTZy43KqpXuLr7EMJYU6fJwGPoAUkMGQpjtkhaAEErdB6tGQ+ltORO6rZWVLNkqA1Y0aLp5laMjj12WfOWJtb9ign1butWTPX2EGs89DxEVUkt9lZ1VWN1qRJK+ywJaHL65E8Ts3wBC0g0dWsHq8hi6AFELS0llSVVMHj6T0Pe6pmjR9bZ4es7Jo8aany60uwkgpVkGDltqSCtaV1jx28VB8n24USsrKratxCT1WtF/c6z+Wamr4GerSA5Lm5MtXiJ2QRtACClvaSypJTQJCGdy/VrJ/csXpY0Jo79wE7fIUVokyuCROahgWtiROXeTpoWgaaOg47ZbwDkDwax+wQtACCVuCgJeMWdM86VA0olUAlwSo3aMmaNnVt4kOWNMDnhiw/VS0ZaBpGIzxBCwhHOiyd8xuyCFoAQcvTmn7XCtdjeGRKvCqs5Fezcpc0yCc2aI2ps3uyCgUtt6qWzM1yO37nZzNXBx5HQdACzPrRj1NzgoQsghZA0DI2Tys7IV4OmPZazcqumTNbk7tlWLOkYMjSqWrJkt4spwOlZR06eJygBSRJwC1DghZA0PIxl+ptZZhwG06qqmZlV+2UFZ4CkFTB5HPkKUZ5gnH27K1DX+uHitNyq6ZmqT2O4Yf5V/O1/wwZTqoKWT9UtZy/pupJQ1kyUoKgBSTHrZWpzqAhi6AFELSMztRSrZrqha4hK9sYr5qtJV9HApuEKrev5RaOpLFdRjWoBo8Ozsxa5vq17KrW+AZ/R/asaTdyLiNBCzDjllGpWhMhi6AFELSMztRSLdkW1Alasu7+6X15Tej1drN8brVKZ+mEo2FVr+ol1ri8px+zM7N01zgfT08ee/IUQQtIUtCqTPURtADEErRkycR2L0FCtva8BKTsbK0pk5u1KlcmglZ+pUt6riQ0ef1c2aL08t4EnZ1F0AKSW80iaAEELeMztQpt9aka4MNcfoNW0FU1fpH2+xN0dhZBCyBoASixoCVnC+o1kdd52jIslaAlSxrodd6joLOzCFoAQQtAiQUtt5la2RVk26/Yg5b0fLn1a5mYnUXQAghaAEowaB3uPKkMEdlDo8s1aGV7vVQjH0zMziJoAQQtACUYtNwOmo67mpWEoOU2Md7E7CyCFkDQAlCCQUvWmlXtjiFCnhgs96ClmqtlanYWQQsgaAEo0aClOmh63Ji62J42TErQUm0bmpqdRdACCFoASjRouTXFl3cz/LJIZmeVUtD6m8pU6kc/Ts1O3+h25aye7ErftM4N/73bpsjnJPeGfdsUe/1tarSvz09/Xt77MfK9qEw1Jfk9IGgRtACCVohH8pRz0BqsaBV+X+rv2UjQSpMQcWtl6lAmOAS7oVWmrkr4uHlUapOEG+MXW5GqGApO9nIMgyOuLR2Gmr28J+mPP+n1MGN7krm8l35C3YjXZmbJ1w01wJq4xiIIWumfiTl5P2/G1s2VqRbulkARB61y79EiaBWuWvkJEj7XYPDyET7kOjPhLfB1yI3bNehUpppMHftihz6Przn9eQOm338vAdNLlc/gNXYnPWiZvpa8NUA1FCiCoKV6qq7cg5bqsOpyC1pywzBSufJ/0/dU8TF5g1MFLQlYYYVOqVhoB63KVGcI19Bt+udIKjCmrk8qRYkOWoMBvI+QBRC0HI/eIWgRtDIViHNxBSzP1aWIgpa8L1EET6ke6mzhGa4U/RAyDG8fGqsyVqauR1VF8v1aw/vvhpAFFEvQUh3FM7FmMeMdFGcenj3bXfJBSyoGEW0Rai/dG0yYQSvztfsjDJc9mjf27kRvH6ZDm8H3pCPJQctk5S6KLV2AoBVS0Oru/hVztHzO0Tp16sWSDlryP/MkBSyvNz2TN9vccBfX+2JXtvSCcWK3D02+d6ot5LiDlt0fGNZ2MiELKK6gpZqj9ZM7Vpd90KquaizLOVpJDVm3VqZ64whaSXlfnHqS8r5315O6fWiw4tYd1ffec9CSqp2h7VFCFlACQWvvnqMELcWqqVnq+P607dhfkkErsSFrcLvoclxBKyHvS79b6JEttaTe4KMKnHEGrcwTuYQsgKDlHrQ467D8glamobo/wUFL+/0webO154Ul5H1xfQ8M9kGZ3D40ta2paoKPO2iFtHVrMSsLKOKgpTrrkKAl0+GXO74/zUu3llzQStLThUFvOCHPL4q3quVeVelK2vahqWvSCdtxBK2w/pIi7xt3Q6CIg5ZqWOnMma1lH7SiHloaZ9AKazxAHKMdSjxouW4jhfHag25dmQohOnPU4ghaYfRlEbKAEg9aXgLRQ617rAsnjlrXLnTZ67dnj9v/fmDXfmtF087Ig9bMu1Zb21Zuso61bbVeObDD+s3TO+119pHt9q+bCFqzZq4praAVQhXE+I3Hw7T0Ug5aOlt58uBAUrYPM0/hRdajF3XQCmNYLCELKJGgZWIqvASpbMByWqcPP+4rcPkJWJ3btgwFK6dVN/PeRA4tjTNomdz2kD4a2eYbUYGyz+SzJ8zXSoVEtoHk5ql7fIyn4FjaQcv1vQijed/v9qGpIKJbVYsyaIXRl0XIAsogaFWNr/cUiNyCVnY9sftAaEHrgZUbrdeOtLuGLIJWuDcmvzcJe9K6hK/05xccUeBhtEM5BC3Xwa2DTfEDSdg+NHQMzUBc33uX7fZ+w9vjl7n7AWUQtLxOhT/9+GHtsCVbiosXtRsNWoe33a8VsGSdenibx2N46h3fp0uXekoiaJmaYq3zRJiX7Sa74pUJXV5vQCEGrQEJgwUrdpnrzvze5bgfDAhhO9jz9qGx3r/KVGfigpbpI5jkLxOGjzwCEGPQUk2F9xq0ZFuw9+VntcPW6794SitsuYWgqXestPuudEOW12pW1NPhY6xodRi6UVwN4/oyoas2zqAlwUlnYGj+NYQxQFT76bsQHnDwGgSMhfgY+/NC/W+GkAWUZ9Dyc/zO7u2PaAct3bDlFoKkOuUlZG1cuiHRx/DEFbRMnpGXlJuF4bMO/W/nDE4K742jIT7zPlyOc/vQxNN4cVczQ6+WErKA8gtaSZgKn5TxDqqgZfoYnhgrWpcN3jSuJuGmkZigdZO5p+58PYFnvilef/vQ0PBUr+Eu1KA1+Jr6CVkAQct1He48SdBK2HT42Cpahh9Pl+Znr1t9pRy0QnmPPVyT6aZ43WBgKOQNxPm9zw9ahvuyBrxsiQIosqClOn5n2tS1BK0yClphnI+XCQM9cQWupAUt0/1SHs997Ihj+9DIlrSHJviwg5bhsDzg+uQogNINWkk4foegVXxPHaoqXDePSm2KcoskaUErU+G5HkvQMt8Ur7V9GMkYi4iCluF5WYQsgKDlHrRyP76n561h6eDatQ+Hfm/XQ48P/fpj+08M+7zaKSt8B63qqsXDvla+/Y8+O/R777zz+6Ffz3+tEqTU5x0ui+y8w7iCVhg9RIp1Tg5pLsegZfKhA6/XZPLP1tk+NBJMPM5OCytoGZ6XRcgCyiVoBT1QevzYuqGPlwCVS4JNoRC0qL7VUy+Yl0rTjRufDbuG1pZ9OU3rZ+xf+5d/6RvxWidMaE7MeYcxH8FzPcKwle3j2hVWj0oiK1oGt/DifhLP9bxFAzO8fA9INf9U4FVCFkDQivxAaRkB8cM4iEbr3//9PwqGrIX1m+1f/93v3vP853ipNO3aeaRgNUvWC8+ft39dPmbYNYypS9TB0uV61mH6zz5pupeLoBV6mO52qaD1B26C97nVnNRTAYIezA2ghIKWTv/UjBmbhn3Ols2PDIUtCToSvlataLe3EaXaNHPGmuFbdtULA/doVY1bOOxrnn/ldfvP/+STT+0/W65BrkXI7+W/Ttl+JGhlbk4hDLeMs3k+oT1azXFek+lePKcgZGIrOsh5fwkNWv2McQAIWp4PlL594vDtOwlT0q+VDVwSsE6/cN4OPCO3JzcFDlqy7Tf2tvkjKluyRZgl/zyikpVe48bWaTfE5/8ZpRi04q5q5Ve4gt6UElrRiveaDM21cqvQmHg6L8gWW2IrWum/SHBnAwhanoLWnDkP2JUpp6/jtO6att7YU4eqpwKd1/z05zUFPlh62p3NJRW05EYcda+WqgLg9cgbglbkYbrbIWhdjaMJPulBS/eMSgAErRFhK7+y5bSkgV43ZHkZ7zAYtuZrXYNUsryELFXQklVSQeuHbZ+BxNycKlOHCFrmrsnwE6b9YWxBB+1lSnLQClqtA1CGQSu7JECpqlvSPD9r1v2hzdGS5vjB43IcAteYOqu6qtHXLK1yClo5N6qBBDURnyRombsmk2cv5vfUGehDG0jStnFIf3m4yh0OIGj5XhKmpP9KRjdI+NLpxTI9sFQqVjXVS+zgJdUurxWscg9aCa1seZoQTtBSbh82h7UVFnRrMkgTfNEELZ8T7wEQtEpyMny5Bi2b9GyZPHA6wi0lgpb6+2owRHfnBa2+uLfVjM8MGxzL0R1Cc3wtdzqAoEXQKueglZEZCzBQTI/IE7Rctw87DYXfvqHXF7A/Sx7ESNr7PHTWYQgPitjvHSMfAIKW6bV4UZvVvnmPsaDVOG+tVTdzTSxB62czV5dF0MqpbnXEHbjkGghawa/J5Ny0bFgIeuyOqSfywjpU2uSWa+6RVNztgDIMWnPnPhBa0Lpw4qh1+vDjxoLWzrUt1tlHtls/qV0ZWtAqh4GlRRS4+glaZq7J1LZwdgssaJXMVHUnrKBl8j3LXUHGmABIcNBq23HAMUC4nUHod0nAunahyw5bJoPWb57eGVrYkicVCVoON7T03/Dj6OHSuTERtNwZOfg5p8oY5GfBRBN8FEErpAPY+8M68xNAjEHrmeNnlPOmdM479LJO7D9kh6ywgpasp9q3GQ1ZEycuV75He3YfKeugNWwbarCaMRBRU7zrTZmgpR2Wr5v6fiSlMTzMoJV5z7pC2BJnajxQakGrt/efrcmTGhxDxKQJjcZC1u7t+4ZCVphBS9bhbfcb7M2qVwat8+cvELQKVEnCrnLphAyClvY1dZi4liCVHlNN8FEFLcNPbTI1HijVoCVr756jyiBhYgsxP2SZDloSrHKDlqxHNrcGDlkTapYo35u1a9qNhqxSCVq5Va6wzk7MfdKNoGWgGmloOzcpASP0oGUooDI1HiiDoCVVrel3rQhtC3H9qg6r9+UTI4KW/JqpoHXq4e0jgpasjUvvC7BluEz5ntw+cZF16VIPQUuDXekwOIlcdfMjaPnePgweiAM0wpsecRBF0DK17VpwajwjH4DSCVqyurt/pQwVVeMW+HoK0SlkZVfYQStI2Bo/doHyPTl08LjxkFWqQWtoq8Vw2CJoGQxaMU5SN9kEH3XQMvUwAVPjgRIPWrLWrGpXBov/NHmZ51lZvz173DFkRRW0Lh5p9zxja/C8xHmRPWlYFkHrJvNPaxG0zAWt0KozMY02iCpoZf6syyH1IdZyFwRKKGjpbCFOv2u9dsjqef4pZciKKmh5DVtyLqLblqHpBvgkBC35n7oc3Bz2/9wNVkGuE7TMBq3M9P+oq1nXw/p5jipohTTuwdMpCACKIGjpbCGOG1On7NeSae8ywsGtkpVdEshMBC1VyMoNW9I0v3LhesdZW26jHGQde/JUaCErzqCVuwUijebp1WS8b8bgJHKeOjQftMJ6ks7ElP8kB61MNbArpPeIqfFAKQUttyGmsiZULxrq11q+dKd1YOej1rljP9cKVvlry/qHIwta+UuqYNtWbhpW6XLrywrjKcMEVbScnqA6d/Oo1CYTwxRlTlCUN2iClq/tw65Ig1ZIQzqjDlphhlQvB6kDKIKgJWvunHXKwNEwb6121SqpQSt3nT+4w1o8q1n5muVMwzCeMkxK0NJ5YixT6TppB69Rt03RPty5MtUkT1JF/Qg8Qcu7ELfBCq3uEP/iEG3QCnfrlanxQKkFrTfeeFs5yFRWZ/vOkglaTz7Y4tqXdfZsd+ghK+aK1mXfN4FRqZ7clQ5Vh4b+Oca+HoJW5D8LiTnfL46glflLxfWQtliZGg+UUtCS9Q+nu137lV49cTj2oCX9VkFC1pm9W61J1XWxjHJIVNCqTPXF9Xh/WFspBC3fPwvNxdoEH3vQCnFMRlj9bABBK6agpdOvNblmgfXuOf9biDIxPmjQapy31nfIunikzZo1tSH2vqxEbB0WT8i6rr1lSdAK8vMwUIxN8HEHrbArgkyNB0osaOn0a827u9l30Pr57sdiDVrNc5tcq3ZR9GXFHbRMPg2YpO0mglaAoBVgynucTfCJCFph/vfE1Hig9ILW9GnuIw9aVmwquqC1Y+W9rq8rjEOjExm0YpwKHuYEcYJWYsN3d7H9TCcqqDI1HiitoKUTRmQ9vfs/F03Qcmt+z12nTr1Y8kErjkGVPm4uvaUQaoolaGW2D7uLrQk+KUEr7JlkUbyHAEErgiXT4nUDiaw4gpbMwvIatNya36McUJqQilZH4kOWj+0SglYwIZ3jNxDF/ztjD1rh/wWGqfFAKQQtt0nxQYPWhRNHAwetnWtbPActL6+pbcf+kg9aYVUu4j5wmKBl4HpNjyuIaNsrCUErs4XYG+J/H0yNBwhaBK0iqWhdTmDIGgi6PULQSl61M6rBm0kJWmH3P0rVjDslUMRBa++eo55CiddRD8UQtOrv2VjyQUseGc8cvTKQmCqWgW0RgpYBg71GxXO9CQtaEVSMmRoPlFPQeumJxwhaRTpHK3tTtYdVhrvd4VjBkm0lkzcNgpax7cMuQwG6uRyDVujjU2TkA4DiDFprVrWHGrR6nn8qcNCSw6HDDFqTJiwsn6BVIHTJTTasY0UkXMnXD+sJKoJWot7HgSh/fJMUtDLXE+oDJ0yNB4o0aDU2bAk1aF156bg1edLSdJhZ7LjGjVmgXI8/sMVTyDrZ4e01ySrLoFXgb+Vy85KeEPmfutzkPQWwylSv/TnyuekAx4Tr4mHk6UNmPwEgaPkbVhpkltaeLQ96Dj35a9a0xaEHrSiHliY1aHmtJtA3UjpMHA7OzwMAglaAYaXZtXvLdm/VrAkLAgctWSd3tYYyrDSOoaWlELRQUiGrtpia4AGgpIPWjnVbIq1mZZecWWj66J24hpYStFBy1ax0WOOdBEDQCjhDS9biuSu1g9b0OxqNBS1ZukFr89JVnr92lLO0CFpITMiSJ1CDP2l4nXcSAEHLUNCafsfiWILW7dV12kFrwYxGghbgZvCp075iGukAAEUVtA53nvQVeuLYOpQqlW7Qmja53vPXj3KWFkELSSBPCVLNAkDQimlY6fixdUZGPMyd0Rw4ZP1s6iLrtSNtgWdojR97D0ELuMncDCqqWQAIWoq1edNux+Ahs69MjHiQJw+DhC2vIUs12qFq/KJEDC0laCFOMt9MjnWhmgWAoBXjsNIZM5xHJLQs3+h5aGlu2JJ/njyhvmAflgSroSrTjEZPIcvticOa6iXKqhZBCyXPUF8W1SwABC2NNW/OesfQMXfuA46/N+/uZk9BKxu2VjesszYv32T/+/OP7RvxdQ+03meHpd3r13nqycpdTXObHK97woQmZdCKamgpQQvFXMlibhYAglbAGVoTaxbbZxBWjXduKv/16aOew1Z+8AoylNRpTap27i2TcxOrxjfEPrSUoIWoZY7Y6Td47l4t7yoAglbAoDVlsnNvVWf7zkBB691zI4PW4a0bA4Us1UT48WPrXYNWVENLCVqIsoplYiApZxoCIGgZnKFVO2WFHbTu/ul9jh+zetHaQEHrhQP7rDGpwa815ra56X+ea+3esD5Q0Fpb73xuY3VVox20JtQsiX2WFkELpsj5gjePSm26ZdRtU7Jr8N9Tu0z1Yo1ogK9IVfDOAyBoBQhaP7ljtR20ZKmeCAyyfSgN9XbISgesocOjpzb4DlkXj7Qptw0nTlxmB62amqUELZRO0DJdrWLLEABBy8x65vgZ5+nvd60fClqqMQ9enz7M3TacXFP4sOlXDmz3FbRUTxuOG1tnhyxZErjinqVF0IIJmb6ryEIWW4YASiJoff3119YHH3wQ67BSGe2QDVoSulRVLdkC9Bq05GBqE4dHZ9eZvVuV1yh9WdmgJSvOoPWHP/yBoIXgKlIVJpvbNUJWL286gJIIWuLbb7+1Pv7441CDVtuOA1pBy+3pQ6lMvXrisHbIkmGnbkNKD7Zu9BSyZMvR+evNtyZOXJ4XtOZHPrT0rbfesj777DPLAUELnqTDz7kIq1kD9GUBKKmgldXf3x/LsNLckKVT1ZKw1fmQ+1OI8jG6E+FbNeZoyVOGqr6sQtUsWVEPLX3vvfesb775xlIgaEFbxFuGA/LkIu86gGIOWi2qO7DcoD/66KNYg5asmuqFruFo+h2L7TB17uiBoXAl/yy/Jr/n9fgdORx6z4Z1VlfHlmEVLPk1dRUrs8bUjahmDQat+siGlv7xj3+0NLTwXwK0GJzsTvM7gHILWwOqO/Hnn38eyQwtCVSFgtbs2VuVB00ncckThvkhK6qhpb29vdZXX33lFrAGCFnwQhrSo6pkccQOgFILW6n06lXdlaVRvq+vL5JhpYWW2xZiokJW9ZKCISuKoaXyPfruu+/cQpZ8r9mSgTapLrFdCADBA1eH6u78/fffW3/+858DhayLF//RMWjINHinoFUsYUsVssKcpSUN71988YXOVmEHP+nwJKotw8pULyELQDmErdr0uq66U8u2lN8xELrDSp2WPJWoehIxvjXfnvyuCllhBS0Z26BRxZLvaS0/4fBRzeqIoJLVzdOFAMopbFWkV5dbdcvPGAjVsNJpU9e6Bi1Zc+c+oDwL0W3tf/RZ69q1D62eC6/a65NPPrWOPXnG99eTBvdCje+FlnycqVlaLmMbcsn3kpsYPJMKU6gN75Wp6zS9AyjnwDXHrVFexkB4qW7pDit1W9Ig7ycUvfbLS46v5c3fXjHa+O60TAQtaXh3GduQbXifw08yAlSzamVLj4Z3AAi3unVZdTeXIae6YyBMBS3VWYiTquZb25atsNeSWY0jfn9lwzrr5/ses1596b/a62TnEeu+5ZtGfNzMO+uHvs6dkxe4nmWou8Y5PEGpO7RUc2zDZapYMBy4OqUCFXSLkIAFAIUDl5ExEF5naKmWar7WUzs2WP/9yFZ7rb5nqecqlYSs8we22J//X/a1KD/WS8gKMrT0ypUrjG1A7GQ7UcKS9G6l12VZUqFy2BaU3++QQaf0YAGAe9hyHQMh21mqMRAmg5aqT2vmnQuHgpKsv994r+skdzs0pT9GKli5n7t09hJFf9Y9noNW1biFnoeWMrYBAIDyCVyuYyD+8pe/FAxakyc1eBpWqlozZ7YqQ9Pqe5qGwpIsCU+H719rbVy8zKr7acOwJVUv+b3cgCVLPjbIOIegQ0ul4V0qhYxtAACgvMKWrzEQfoaV+t0+zFa2nuvYOCw86SzZLlRVsrIjHbyGLFnVVY1aQ0sZ2wAAQHmHLa0xEDdu3LBD1htvvO18OPSkpb6CljTQ6/RcSXXr8NZ1rgFLQpl8rDTUBx1O6neWllSx5D1jbAMAANAaAyFTy1955bVAw0qdlnyubpO7BKh77m6wtwS3L185tOTXdMJV7uwsPyHLLWh17OpkbAMAAChY3VKOgfjrXwes+fM2GA9asmTrMaop8DKeQXdAqZdZWn//yFOMbQAAAMrA5ToG4tDBk4FnaHl9CjFJISs/aE2busz69a/fYWwDAADQCluuYyDeeONd6/ZJi40GLa/biF5X1fhFRkJW7iytObM2WP39XzC2AQAAeA5cyjEQN278xfq7u++1A4ecX2giaGWP5zG6lTimzvMxO659WlULrT27jzG2AQAABApbrmMg9u19xlq8eJexoJX7RGKQ7USpOvl9slC16usfsN59938xtgEAABgJW65jIP7t3/6Pdd99B4yHLVlSLZt+13qrdsoK9dytMXX21HaZc+X1/ELdtWfPM9aXX/4HYxsAAIDxwOU6BuK55/5bKGHLKYBNmNAUSqDKX3feuda6dOltxjYAAIBQw5brGIj33/+TtXLlvkjCVhQha9GiB+1+NMY2AACAqAKXcgzEV1/9X+vAgReKPmjt3/8cYxsAAEAsYct1DMQ//dP/DKVRPuygNXXqOqun53eMbQAAALEHLuUYiE8//au1ffsTRRO0Vq/erbNV2MF3HgAARBW2XMdA/OIXFxIftJ5++iXGNgAAgESGLdcxEB988Im1cePBxAWt2bO3WFeuXGNsAwAASHzgmuPWKP/UU+cSE7S2bDnkNhuLsQ0AACBRYct1DMSbb74XuFE+aMP7L3/5G8Y2AACAog1crmMgHnzwaORBq7Gx3frXf/2IsQ0AAKDow5brGIiXX/4fvqpbfkLWwYMvMLYBAACUXOBSjoH48MMb1qZNh0ILWtOmrddpeO/gOwUAAIo1bLmOgTh+/GXjQWvbtsfdGt6vU8UCAAClELZcx0D8/vf/22ps7AgctDQb3jtpeAcAAKUWuFzHQOzefdJ30Fqy5CG3Ce+MbQAAACUdtlzHQFy69DvHRnmnkPXMM91uVaxuqlgAAKBcApdyDIScl1ioUZ6xDQAAAHphy3UMxOnTrzkGLRnb4NLwLl97NO80AAAo58ClHAPx3nsfWKtWPTIUtObMuZ+xDQAAAB7ClnIMhDTKb9jwGGMbAAAAfIYt1zEQjG0AAAAIFriUYyAY2wAAABAsbLmOgWBsAwAAQLDA5TQGgrENAAAABsLW6LwxEIxtAAAAMBy4OhjbAAAAAAAAAAAAAAAAAAAAAAAAAAAAAAAAAAAAAAAAAAAAAAAAAAAAAAAAAAAAAAAAAAAAAAAAAAAAAAAAAAAAAAAAAAAAAAAAAAAAAAAAAAAAAAAAAAAAAAAAAAAAAAAAAAAAAAAAAAAAAAAAAAAAAAAAAAAAAAAAAAAAAAAAAAAAAAAAAAAAAAAAAAAAAAAAAAAAAAAAAAAAAAAAAAAAAAAAAAAAAAAAAAAAAAAAAAAAAAAAAAAAAAAAAAAAAAAAAAAAAAAAAAAAAAAAAAAAAAAAAAAAAAAAAAAAAAAAAAAAAAAAAAAAAAAAAAAAAAAAAAAAAAAAAAAAAAAAAADAoP8PoHL5jgYIeWQAAAAASUVORK5CYII=;" vertex="1" parent="1">
                    <mxGeometry x="383.3" y="-7" width="85" height="48.29" as="geometry"/>
                </mxCell>
                <mxCell id="56" value="Runner - Ubuntu&lt;br&gt;IAC Prov" style="pointerEvents=1;shadow=0;dashed=0;html=1;strokeColor=none;fillColor=#4495D1;labelPosition=left;verticalLabelPosition=middle;verticalAlign=middle;align=right;outlineConnect=0;shape=mxgraph.veeam.server;fontSize=8;" vertex="1" parent="1">
                    <mxGeometry x="534.4" y="258.8" width="71.6" height="8.8" as="geometry"/>
                </mxCell>
                <mxCell id="59" value="Runner -Windows&amp;nbsp;&lt;br&gt;Deploy" style="pointerEvents=1;shadow=0;dashed=0;html=1;strokeColor=none;fillColor=#4495D1;labelPosition=left;verticalLabelPosition=middle;verticalAlign=middle;align=right;outlineConnect=0;shape=mxgraph.veeam.server;fontSize=8;" vertex="1" parent="1">
                    <mxGeometry x="693" y="256" width="71.6" height="8.8" as="geometry"/>
                </mxCell>
            </root>
        </mxGraphModel>
    </diagram>
</mxfile>